<?xml version="1.0" encoding="UTF-8" standalone="no"?>
<svg
   enable-background="new 0 0 1000 273.812"
   height="165.40137"
   viewBox="0 0 671.44963 273.60013"
   width="405.63754"
   version="1.1"
   id="svg20"
   sodipodi:docname="logo-theme-disney.svg"
   inkscape:version="1.4.4 (dcaf3e7d9e, 2026-05-05)"
   xmlns:inkscape="http://www.inkscape.org/namespaces/inkscape"
   xmlns:sodipodi="http://sodipodi.sourceforge.net/DTD/sodipodi-0.dtd"
   xmlns="http://www.w3.org/2000/svg"
   xmlns:svg="http://www.w3.org/2000/svg">
  <defs
     id="defs20" />
  <sodipodi:namedview
     id="namedview20"
     pagecolor="#ffffff"
     bordercolor="#000000"
     borderopacity="0.25"
     inkscape:showpageshadow="2"
     inkscape:pageopacity="0.0"
     inkscape:pagecheckerboard="0"
     inkscape:deskcolor="#d1d1d1"
     inkscape:zoom="1.469074"
     inkscape:cx="124.56827"
     inkscape:cy="142.60684"
     inkscape:window-width="1920"
     inkscape:window-height="1044"
     inkscape:window-x="1028"
     inkscape:window-y="1080"
     inkscape:window-maximized="1"
     inkscape:current-layer="svg20" />
  <path
     d="m 274.77051,93.182998 c -0.286,0 -0.595,-0.023 -0.892,-0.081 -5.14,-2.707 -5.29,-9.185 -4.74,-15.182 l 0.012,-0.103 -0.081,-0.079 c -4.466,-4.879 -9.252,-12.555 -6.717,-21.398 1.406,-8.26 5.54,-15.103 13.399,-22.208 8.18,-6.889 17.937,-11.276 31.622,-14.223 3.017,-0.605 5.919,-0.902 8.613,-0.902 7.382,0 12.797,2.204 16.074,6.579 l 0.058,0.08 0.114,0.012 c 4.317,0.411 10.693,1.816 13.994,3.633 2.525,1.531 8.352,5.906 7.665,13.458 -0.662,7.437 -4.375,15.925 -7.448,19.535 -8.053,10.818 -18.667,16.644 -28.925,21.316 -5.666,2.638 -13.115,4.079 -20.986,4.079 -4.444,0 -8.841,-0.491 -12.727,-1.405 l -0.148,-0.035 -0.524,0.686 c -1.576,2.171 -4.524,6.238 -8.363,6.238 m 56.481,-54.378 c -16.109,0 -27.305,13.103 -35.484,22.687 -2.342,2.743 -4.066,6.021 -5.004,9.494 l -0.021,0.125 0.067,0.104 c 1.052,1.131 3.119,1.714 6.111,1.714 1.886,0 4.079,-0.207 6.866,-0.664 20.518,-3.45 33.177,-11 37.631,-22.402 0.48,-2.284 0.892,-6.374 -1.646,-8.556 l -3.542,-2.068 c -1.712,-0.309 -3.356,-0.434 -4.978,-0.434 m -29.11,-5.472 c -12.153,0 -27.782,10.602 -28.901,23.772 -0.275,2.445 1.37,5.473 3.403,6.216 l 0.206,0.091 0.091,-0.206 c 4.914,-10.374 16.863,-23.271 27.202,-29.336 l 0.65,-0.39 -0.755,-0.067 c -0.615,-0.058 -1.244,-0.08 -1.896,-0.08"
     fill="#0a0b0b"
     id="path1" />
  <path
     d="m 315.98751,19.246998 c 7.312,0 12.658,2.182 15.88,6.477 l 0.139,0.182 0.204,0.023 c 4.297,0.4 10.624,1.794 13.893,3.577 2.49,1.507 8.213,5.814 7.539,13.24 -0.639,7.379 -4.329,15.821 -7.402,19.432 -8.008,10.739 -18.576,16.554 -28.811,21.226 -5.633,2.616 -13.047,4.055 -20.884,4.055 -4.433,0 -8.82,-0.48 -12.681,-1.404 l -0.309,-0.07 -0.194,0.263 -0.411,0.561 c -1.553,2.136 -4.478,6.123 -8.168,6.123 -0.263,0 -0.525,-0.022 -0.787,-0.057 -5.017,-2.685 -5.165,-9.048 -4.617,-14.92 l 0.023,-0.216 -0.16,-0.16 c -4.41,-4.833 -9.162,-12.441 -6.637,-21.226 1.382,-8.18 5.483,-14.966 13.296,-22.036 8.169,-6.854 17.892,-11.23 31.52,-14.166 3.005,-0.596 5.883,-0.904 8.567,-0.904 m -39.024,44.462 0.206,-0.388 c 4.889,-10.35 16.792,-23.191 27.098,-29.247 l 1.291,-0.765 -1.497,-0.125 c -0.615,-0.057 -1.256,-0.092 -1.908,-0.092 -15.273,0 -28.205,12.897 -29.143,23.979 -0.297,2.547 1.428,5.701 3.542,6.489 z m 19.969,9.459 c 1.862,0 4.125,-0.217 6.901,-0.673 20.607,-3.462 33.323,-11.047 37.823,-22.62 0.48,-2.296 0.903,-6.489 -1.792,-8.797 l -3.495,-2.045 -0.081,-0.045 -0.091,-0.011 c -1.657,-0.275 -3.313,-0.412 -4.936,-0.412 -16.233,0 -27.476,13.16 -35.679,22.768 -2.374,2.764 -4.11,6.089 -5.06,9.597 l -0.069,0.263 0.194,0.183 c 1.099,1.209 3.156,1.792 6.285,1.792 m 19.055,-54.412 c -2.901,0 -5.847,0.354 -8.658,0.914 -11.698,2.525 -22.459,6.478 -31.737,14.28 -6.694,6.055 -11.88,12.943 -13.468,22.323 -2.421,8.431 1.635,16.028 6.773,21.626 -0.548,5.928 -0.41,12.623 4.938,15.445 0.318,0.045 0.639,0.067 0.947,0.067 4.306,0 7.527,-4.958 8.967,-6.877 3.976,0.937 8.363,1.406 12.796,1.406 7.563,0 15.228,-1.383 21.088,-4.09 11.79,-5.392 21.534,-11.378 28.994,-21.386 3.222,-3.781 6.854,-12.338 7.495,-19.684 0.56,-6.078 -3.143,-10.876 -7.769,-13.686 -3.542,-1.941 -10.064,-3.267 -14.097,-3.644 -3.737,-4.97 -9.87,-6.694 -16.269,-6.694 m -39.263,44.347 c -1.885,-0.697 -3.507,-3.61 -3.245,-5.975 1.107,-13 16.325,-23.544 28.674,-23.544 0.629,0 1.246,0.022 1.875,0.079 -10.522,6.181 -22.427,19.148 -27.304,29.44 m 20.208,9.585 c -2.525,0 -4.798,-0.4 -5.939,-1.645 0.993,-3.702 2.799,-6.866 4.958,-9.392 8.055,-9.424 19.294,-22.608 35.312,-22.608 1.564,0 3.188,0.125 4.854,0.4 l 3.495,2.045 c 2.217,1.907 2.171,5.46 1.566,8.293 -5.449,13.994 -22.678,19.752 -37.438,22.243 -2.033,0.334 -4.536,0.664 -6.808,0.664"
     id="path2" />
  <path
     d="m 425.40751,193.029 c -1.475,0 -3.062,-0.285 -4.238,-0.742 -7.21,-3.645 -7.117,-12.578 -7.026,-20.484 v -1.244 c 0.206,-2.057 0.388,-4.215 0.571,-6.398 0.388,-4.523 0.777,-9.184 1.462,-13.582 2.103,-13.413 4.387,-26.367 9.139,-37.574 1.165,-2.4 2.446,-4.113 5.211,-5.13 0.297,-0.057 0.639,-0.09 0.959,-0.09 3.827,0 7.104,4.466 9.059,7.128 0.332,0.434 0.606,0.822 0.834,1.13 6.854,8.705 13.138,18.084 19.205,27.176 3.598,5.395 7.321,10.969 11.184,16.43 0.297,0.422 0.56,0.846 0.799,1.244 0.72,1.133 1.325,2.115 2.286,2.115 0.228,0 0.479,-0.059 0.74,-0.184 1.384,-0.926 1.224,-5.6 -0.513,-15.629 -1.372,-8.544 -3.062,-16.141 -5.302,-23.922 -0.501,-1.678 -1.005,-3.335 -1.507,-4.98 -2.342,-7.643 -4.547,-14.874 -5.348,-22.985002 -0.364,-2.067 -0.661,-4.489 -0.285,-6.82 0.285,-0.88 1.04,-1.349 2.205,-1.349 0.708,0 1.543,0.183 2.308,0.492 4.022,2.033 6.717,6.477 8.843,10.042 0.365,0.594 0.72,1.188 1.05,1.713 9.164,14.668002 14.122,27.224002 16.098,40.704002 0.08,1.623 0.159,3.246 0.262,4.865 0.641,11.654 1.258,22.656 -4.294,32.857 -2.193,4.113 -6.878,11.025 -13.618,11.025 -1.291,0 -2.616,-0.254 -3.93,-0.754 -7.094,-3.932 -11.606,-11.516 -15.959,-18.852 -0.801,-1.336 -1.566,-2.627 -2.354,-3.895 -4.992,-8.203 -10.408,-18.291 -15.068,-27.109 -0.411,-0.696 -1.382,-1.783 -2.262,-1.783 -0.297,0 -0.572,0.125 -0.777,0.376 -0.434,1.086 -0.663,2.605 -0.685,4.32 -0.253,4.75 -0.527,9.365 -0.777,13.912 -0.525,9.117 -1.028,17.709 -1.382,26.859 -0.424,4.719 -1.531,7.996 -3.475,10.338 -0.673,0.494 -1.908,0.78 -3.415,0.78"
     fill="#0a0b0b"
     id="path3" />
  <path
     d="m 464.84251,87.378998 c 0.675,0 1.485,0.172 2.182,0.457 3.977,2.011 6.639,6.42 8.774,9.961 0.354,0.606 0.696,1.188 1.04,1.714 9.138,14.634002 14.085,27.166002 16.063,40.565002 0.067,1.635 0.16,3.281 0.25,4.889 0.652,11.621 1.268,22.588 -4.25,32.73 -2.17,4.08 -6.796,10.91 -13.411,10.91 -1.256,0 -2.559,-0.262 -3.793,-0.73 -7.06,-3.906 -11.55,-11.457 -15.902,-18.77 -0.775,-1.326 -1.553,-2.639 -2.342,-3.895 -4.97,-8.168 -10.395,-18.279 -15.067,-27.11 -0.435,-0.766 -1.463,-1.908 -2.468,-1.908 -0.39,0 -0.708,0.16 -0.972,0.469 l -0.045,0.056 -0.034,0.079 c -0.399,1.042 -0.641,2.595 -0.664,4.32 -0.251,4.773 -0.502,9.389 -0.775,13.947 -0.516,9.094 -1.017,17.697 -1.372,26.824 -0.41,4.627 -1.497,7.859 -3.382,10.168 -0.685,0.479 -1.85,0.73 -3.266,0.73 -1.439,0 -2.994,-0.275 -4.113,-0.709 -7.082,-3.598 -6.991,-12.451 -6.924,-20.277 l 0.012,-1.197 c 0.218,-2.092 0.401,-4.24 0.57,-6.445 0.379,-4.5 0.778,-9.148 1.451,-13.549 2.103,-13.388 4.387,-26.332 9.141,-37.493 1.119,-2.365 2.377,-4.032 5.004,-5.004 0.308,-0.056 0.616,-0.09 0.937,-0.09 3.702,0 6.944,4.398 8.864,7.038 0.32,0.434 0.594,0.81 0.845,1.119 6.833,8.704 13.115,18.084 19.171,27.167 3.621,5.4 7.335,10.977 11.195,16.438 0.309,0.412 0.57,0.846 0.81,1.232 0.745,1.201 1.384,2.24 2.47,2.24 0.263,0 0.56,-0.078 0.912,-0.25 1.475,-0.982 1.36,-5.576 -0.422,-15.846 -1.382,-8.545 -3.085,-16.165 -5.335,-23.968 -0.491,-1.668 -0.993,-3.324 -1.497,-4.981 -2.33,-7.621 -4.547,-14.839 -5.346,-22.951002 -0.343,-2.045 -0.663,-4.444 -0.273,-6.672 0.089,-0.294 0.362,-1.208 1.962,-1.208 m 0,-0.479 c -1.072,0 -2.08,0.388 -2.444,1.553 -0.388,2.263 -0.114,4.639 0.285,6.889 0.982,9.916002 4.125,18.712002 6.854,28.000002 2.284,7.894 3.988,15.616 5.313,23.899 0.936,5.438 2.33,14.234 0.639,15.365 -0.239,0.104 -0.458,0.17 -0.65,0.17 -1.109,0 -1.748,-1.666 -2.88,-3.266 -10.406,-14.736 -19.513,-29.783 -30.388,-43.629 -1.68,-2.136 -5.473,-8.34 -10.087,-8.34 -0.344,0 -0.686,0.023 -1.028,0.103 -2.765,1.017 -4.113,2.673 -5.357,5.255 -4.891,11.515 -7.187,24.96 -9.162,37.618 -1.028,6.57 -1.383,13.686 -2.033,20.039 -0.058,8.375 -0.56,18.037 7.185,21.955 1.211,0.48 2.811,0.756 4.319,0.756 1.438,0 2.765,-0.252 3.598,-0.857 2.229,-2.672 3.164,-6.385 3.53,-10.486 0.548,-13.766 1.404,-26.594 2.147,-40.783 0.023,-1.576 0.241,-3.121 0.641,-4.169 0.183,-0.207 0.364,-0.288 0.594,-0.288 0.731,0 1.644,0.949 2.055,1.657 4.73,8.957 10.088,18.917 15.081,27.121 5.049,8.168 9.938,18.131 18.404,22.836 1.416,0.539 2.753,0.789 4.032,0.789 6.638,0 11.378,-6.557 13.822,-11.162 6.376,-11.688 4.685,-24.424 4.066,-37.869 -2.261,-15.388 -8.259,-28.194 -16.13,-40.796002 -2.354,-3.758 -5.209,-9.436 -10.007,-11.858 -0.686,-0.285 -1.554,-0.502 -2.399,-0.502"
     id="path4" />
  <path
     d="m 521.78051,199.517 c -6.811,0 -11.608,-2.535 -16.52,-8.785 -5.028,-6.227 -6.65,-16.484 -3.884,-24.4 1.005,-2.811 2.227,-5.428 3.528,-8.215 1.463,-3.141 2.971,-6.398 4.125,-9.904 -0.365,-0.869 -0.571,-1.701 -0.801,-2.582 l -0.205,-0.834 c 0.07,-0.365 0.047,-0.867 0.023,-1.348 -0.069,-1.109 -0.113,-2.146 0.856,-2.639 2.229,-1.143 5.106,-2.081 5.153,-2.09 2.136,-2 3.095,-5.027 4.021,-7.952 0.343,-1.085 0.685,-2.159 1.063,-3.153 l 0.309,-0.731 c 0.502,-1.188 1.21,-2.833 1.439,-3.999 l 0.045,-0.206 -0.182,-0.068 c -1.623,-0.641 -3.519,-1.005 -5.52,-1.394 -2.535,-0.491 -5.174,-0.995 -7.414,-2.114 -2.89,-1.349 -6.878,-4.935 -5.255,-8.865 3.486,-2.788 14.029,-3.862 24.219,-4.89 3.907,-0.399 7.93,-0.811 11.516,-1.325 l 1.325,-0.182 c 7.289,-1.063 14.807,-2.171 22.551,-2.171 0.742,0 1.509,0.012 2.251,0.023 2.274,0.296 4.056,0.663 6.202,2.775 l 6.971,8.134 0.204,0.297 c 1.177,1.714 3.143,4.581 2.171,5.895 -3.255,3.621 -7.813,4.125 -12.247,4.125 -1.188,0 -2.397,-0.035 -3.586,-0.069 -1.188,-0.045 -2.354,-0.079 -3.519,-0.079 -1.303,0 -2.422,0.045 -3.405,0.16 l -19.329,0.583 c -1.689,0.513 -2.217,1.908 -2.729,3.244 -0.148,0.389 -0.285,0.765 -0.469,1.131 l -0.207,0.583 c -1.072,3.152 -2.191,6.397 -1.725,9.539 l 0.012,0.104 1.325,0.823 c 1.279,0.09 2.444,0.113 3.599,0.113 2.114,0 4.217,-0.08 6.329,-0.148 2.092,-0.08 4.192,-0.16 6.272,-0.16 4.82,0 8.396,0.434 11.583,1.418 1.155,0.514 1.759,5.572 1.497,9.561 -0.787,2.867 -9.104,3.096 -14.063,3.246 l -1.349,0.043 c -3.291,0.137 -6.443,0.16 -10.167,0.16 h -3.93 c -1.806,0 -3.609,0.012 -5.427,0.035 h -0.125 l -0.069,0.125 c -1.394,2.412 -3.211,5.963 -4.455,8.422 -0.239,0.639 -0.57,1.334 -0.938,2.078 -1.337,2.844 -3.016,6.363 -0.708,9.697 0.274,0.389 0.834,0.561 1.783,0.561 2.216,0 6.214,-0.98 11.275,-2.238 7.551,-1.873 16.94,-4.193 24.55,-4.193 0.845,0 1.668,0.035 2.443,0.092 1.726,0.104 5.416,6.729 5.165,11.115 -0.012,0 -0.662,1.818 -1.989,2.832 -4.294,3.256 -25.041,15.949 -39.229,17.572 -1.641,0.168 -3.069,0.248 -4.359,0.248"
     fill="#0a0b0b"
     id="path5" />
  <path
     d="m 562.17451,101.43 v 0.48 c 0.742,0 1.485,0.012 2.205,0.035 2.228,0.274 3.987,0.628 6.044,2.661 l 6.945,8.111 0.229,0.331 c 1.061,1.542 3.062,4.421 2.217,5.563 -3.21,3.588 -7.713,4.078 -12.101,4.078 -1.177,0 -2.386,-0.056 -3.574,-0.091 -1.188,-0.035 -2.354,-0.08 -3.519,-0.08 -1.303,0 -2.444,0.057 -3.383,0.171 l -19.352,0.583 h -0.067 l -0.046,0.023 c -1.76,0.537 -2.331,2.045 -2.834,3.382 -0.16,0.366 -0.298,0.754 -0.502,1.165 l -0.184,0.548 c -1.084,3.177 -2.216,6.467 -1.736,9.654 l 0.023,0.228 0.205,0.116 1.234,0.74 0.103,0.07 h 0.125 c 1.074,0.07 2.217,0.104 3.496,0.104 2.103,0 4.25,-0.092 6.329,-0.174 2.057,-0.066 4.192,-0.146 6.249,-0.146 4.81,0 8.363,0.436 11.48,1.393 0.961,0.436 1.646,5.096 1.372,9.277 -0.822,2.695 -8.958,2.936 -13.823,3.072 l -1.371,0.035 c -3.269,0.148 -6.444,0.184 -10.19,0.184 h -1.942 l -1.92,-0.012 c -1.827,0 -3.621,0.012 -5.448,0.045 h -0.262 l -0.138,0.229 c -1.371,2.354 -3.107,5.746 -4.489,8.488 -0.218,0.605 -0.562,1.303 -0.902,2.033 -1.303,2.73 -3.097,6.488 -0.698,9.928 0.309,0.467 0.949,0.686 1.978,0.686 2.239,0 6.236,-1.006 11.332,-2.252 7.539,-1.873 16.907,-4.191 24.493,-4.191 0.845,0 1.668,0.023 2.443,0.09 1.418,0.094 5.13,6.365 4.936,10.797 -0.137,0.309 -0.753,1.84 -1.895,2.719 -4.297,3.258 -24.974,15.914 -39.116,17.514 -1.646,0.182 -3.062,0.262 -4.341,0.262 -6.741,0 -11.46,-2.514 -16.337,-8.691 -4.958,-6.17 -6.58,-16.338 -3.827,-24.174 0.993,-2.789 2.205,-5.416 3.507,-8.203 1.463,-3.143 2.972,-6.396 4.137,-9.916 l 0.056,-0.184 -0.079,-0.193 c -0.332,-0.65 -0.55,-1.475 -0.766,-2.354 -0.058,-0.24 -0.126,-0.502 -0.184,-0.742 0.047,-0.447 0.023,-0.926 0,-1.383 -0.058,-1.232 -0.058,-2.01 0.72,-2.422 2.229,-1.119 5.095,-2.045 5.118,-2.057 l 0.103,-0.033 0.081,-0.07 c 2.101,-1.987 3.062,-5.06 3.997,-8.019 0.344,-1.108 0.675,-2.148 1.052,-3.13 l 0.309,-0.731 c 0.515,-1.2 1.223,-2.856 1.462,-4.043 l 0.081,-0.4 -0.366,-0.137 c -1.646,-0.651 -3.542,-1.017 -5.564,-1.406 -2.523,-0.491 -5.15,-0.993 -7.367,-2.102 -2.765,-1.292 -6.604,-4.707 -5.164,-8.442 3.588,-2.776 13.994,-3.838 24.059,-4.866 3.906,-0.389 7.94,-0.801 11.516,-1.302 l 1.337,-0.207 c 7.276,-1.062 14.795,-2.159 22.516,-2.159 v -0.483 m -0.002,0 c -8.225,0 -16.107,1.223 -23.92,2.365 -12.876,1.828 -30.914,2.284 -35.918,6.352 -1.623,3.963 2.103,7.666 5.369,9.185 4.043,2.01 9.298,2.056 12.942,3.506 -0.263,1.395 -1.221,3.474 -1.725,4.673 -1.439,3.644 -2.182,8.363 -4.958,10.99 0,0 -2.901,0.935 -5.162,2.08 -1.6,0.811 -0.801,2.82 -1.006,4.271 0.318,1.166 0.537,2.365 1.006,3.291 -2.149,6.5 -5.462,12.018 -7.644,18.105 -2.8,7.998 -1.222,18.279 3.918,24.633 5.462,6.934 10.487,8.885 16.703,8.885 1.393,0 2.855,-0.111 4.387,-0.273 14.759,-1.666 35.87,-14.965 39.367,-17.604 1.404,-1.084 2.078,-3.016 2.078,-3.016 0.241,-4.488 -3.473,-11.242 -5.393,-11.379 -0.799,-0.057 -1.622,-0.08 -2.467,-0.08 -12.681,0 -30.343,6.443 -35.825,6.443 -0.801,0 -1.36,-0.148 -1.576,-0.467 -2.846,-4.09 0.582,-8.57 1.644,-11.539 1.406,-2.764 3.131,-6.111 4.456,-8.398 1.815,-0.033 3.609,-0.033 5.437,-0.033 h 3.862 c 3.347,0 6.74,-0.021 10.213,-0.17 5.175,-0.172 14.737,-0.16 15.651,-3.52 0.239,-3.484 -0.183,-9.15 -1.656,-9.803 -3.712,-1.131 -7.644,-1.427 -11.676,-1.427 -4.148,0 -8.396,0.308 -12.578,0.308 -1.166,0 -2.331,-0.021 -3.473,-0.09 l -1.233,-0.744 c -0.503,-3.266 0.799,-6.762 1.896,-9.984 0.765,-1.542 1.005,-3.621 3.016,-4.238 l 19.328,-0.583 c 1.099,-0.125 2.229,-0.16 3.383,-0.16 2.318,0 4.729,0.16 7.093,0.16 4.696,0 9.197,-0.617 12.441,-4.227 1.143,-1.553 -1.153,-4.696 -2.376,-6.489 l -6.98,-8.157 c -2.158,-2.148 -3.997,-2.536 -6.362,-2.833 -0.753,-0.021 -1.52,-0.033 -2.262,-0.033"
     id="path6" />
  <path
     d="m 366.80251,193.062 c -7.448,0 -15.445,-1.166 -23.077,-3.369 -4.889,-1.484 -20.997,-7.416 -23.809,-21.305 -0.615,-3.199 -0.09,-5.748 1.646,-7.793 2.581,-3.016 5.872,-5.619 9.505,-7.516 4.363,-1.908 9.185,-2.846 14.76,-2.846 8.34,0 16.748,2.104 24.893,4.113 1.862,0.469 3.712,0.926 5.506,1.348 l 0.915,0.195 c 3.117,0.674 6.659,1.439 6.339,3.871 -0.731,2.742 -3.484,3.896 -6.146,5.006 -0.718,0.318 -1.438,0.615 -2.077,0.936 -2.503,1.176 -5.142,1.748 -8.09,1.748 -6.042,0 -12.131,-2.457 -17.479,-4.627 -4.387,-1.76 -8.18,-3.291 -11.309,-3.291 -3.839,0.24 -8.066,0.846 -10.1,4.992 -0.742,1.498 -0.469,3.268 0.708,4.766 4.615,4.707 11.949,5.322 17.318,5.779 l 1.303,0.125 c 0.961,0.059 1.919,0.08 2.88,0.08 10.258,0 19.739,-2.945 28.901,-5.803 6.718,-2.045 13.115,-4.74 15.081,-10.691 0.262,-0.996 0.09,-1.979 -0.458,-2.961 -2.056,-3.494 -9.115,-6.408 -15.057,-7.973 -6.124,-1.199 -12.36,-1.359 -17.639,-1.359 -1.964,0 -3.93,0.023 -5.894,0.045 -1.967,0.023 -3.907,0.047 -5.873,0.047 -7.927,0 -16.359,-0.389 -24.402,-3.189 -3.095,-1.141 -10.383,-3.824 -10.624,-9.607 1.028,-10.658 4.206,-17.227 9.974,-20.607 12.419,-7.255 27.829,-11.196 47.147,-11.996 2.022,-0.091 4.01,-0.137 5.996,-0.137 9.243,0 17.193,1.005 25.009,3.164 2.239,0.571 3.804,1.394 5.791,2.422 0.583,0.297 1.177,0.594 1.829,0.925 0.743,2.697 -1.588,5.861 -3.143,7.94 -3.793,2.364 -8.818,2.753 -13.275,3.095 l -0.41,0.022 c -16.36,1.211 -33.746,2.605 -50.539,5.199 -4.617,1.107 -9.083,2.284 -13.185,4.5 -0.524,0.959 0.538,1.805 1.212,2.228 9.893,2.479 20.449,3.325 30.672,4.146 9.619,0.766 19.547,1.565 28.801,3.679 10.852,3.21 16.2,14.052 17.593,23.144 0.184,7.586 -1.964,14.703 -5.733,19.021 -10.83,10.366 -25.27,12.534 -35.46,12.534"
     fill="#0a0b0b"
     id="path7" />
  <path
     d="m 377.64251,101.282 c 9.22,0 17.149,1.005 24.962,3.153 2.193,0.583 3.759,1.382 5.735,2.399 0.514,0.274 1.04,0.537 1.623,0.834 0.661,2.649 -1.485,5.621 -2.971,7.607 -3.793,2.342 -8.774,2.719 -13.161,3.062 l -0.388,0.035 c -16.383,1.2 -33.78,2.604 -50.609,5.208 -4.626,1.109 -9.104,2.285 -13.229,4.524 l -0.137,0.069 -0.069,0.137 c -0.388,0.765 0.116,1.633 1.406,2.433 l 0.067,0.035 0.081,0.035 c 9.824,2.456 20.403,3.289 30.638,4.112 9.598,0.765 19.535,1.554 28.731,3.667 10.752,3.176 16.051,13.938 17.435,22.883 0.172,7.563 -1.942,14.611 -5.634,18.861 -10.816,10.314 -25.178,12.496 -35.321,12.496 -7.426,0 -15.4,-1.176 -23.008,-3.369 -4.844,-1.473 -20.86,-7.357 -23.637,-21.135 -0.605,-3.105 -0.092,-5.588 1.588,-7.574 2.559,-2.992 5.826,-5.564 9.392,-7.438 4.364,-1.908 9.162,-2.832 14.68,-2.832 8.328,0 16.724,2.078 24.846,4.09 1.875,0.469 3.726,0.924 5.518,1.35 l 0.914,0.193 c 3.018,0.662 6.433,1.393 6.158,3.553 -0.708,2.65 -3.405,3.781 -6.01,4.889 -0.754,0.297 -1.438,0.605 -2.089,0.926 -2.47,1.154 -5.085,1.713 -7.987,1.713 -6.007,0 -12.052,-2.443 -17.386,-4.592 -4.41,-1.781 -8.226,-3.314 -11.425,-3.326 -4.171,0.264 -8.293,1.076 -10.282,5.119 -0.787,1.6 -0.524,3.484 0.754,5.072 4.661,4.764 12.042,5.393 17.458,5.85 l 1.302,0.115 c 0.959,0.045 1.94,0.078 2.901,0.078 10.281,0 19.798,-2.959 29.05,-5.838 6.685,-2.045 13.161,-4.773 15.172,-10.852 0.285,-1.041 0.104,-2.078 -0.49,-3.119 -2.08,-3.574 -9.22,-6.521 -15.229,-8.1 -6.135,-1.211 -12.372,-1.359 -17.673,-1.359 -1.964,0 -3.93,0.023 -5.894,0.047 -1.967,0.021 -3.931,0.045 -5.873,0.045 -7.906,0 -16.313,-0.377 -24.31,-3.164 -4.764,-1.771 -10.26,-4.422 -10.476,-9.346 1.017,-10.601 4.146,-17.091 9.858,-20.438 12.36,-7.254 27.761,-11.16 47.033,-11.973 2.103,-0.089 4.057,-0.135 5.986,-0.135 m 0,-0.48 c -1.986,0 -3.985,0.045 -6.007,0.126 -16.6,0.708 -33.04,3.712 -47.25,12.04 -7.129,4.17 -9.334,12.783 -10.1,20.814 0.239,5.634 6.729,8.339 10.796,9.837 7.905,2.752 16.153,3.199 24.47,3.199 3.906,0 7.837,-0.094 11.767,-0.094 5.93,0 11.813,0.23 17.571,1.35 7.437,1.953 16.587,5.986 15.353,10.623 -2.034,6.158 -9.162,8.785 -14.852,10.521 -9.081,2.822 -18.667,5.803 -28.901,5.803 -0.938,0 -1.896,-0.021 -2.88,-0.066 -5.553,-0.504 -13.549,-0.813 -18.438,-5.826 -1.028,-1.291 -1.439,-2.959 -0.662,-4.502 1.918,-3.941 6.008,-4.615 9.87,-4.867 6.945,0.023 17.854,7.918 28.787,7.918 2.744,0 5.506,-0.504 8.203,-1.748 3.039,-1.531 7.379,-2.49 8.363,-6.146 0.364,-2.9 -4.046,-3.564 -7.448,-4.33 -9.459,-2.203 -20.118,-5.449 -30.468,-5.449 -5.084,0 -10.111,0.777 -14.863,2.867 -3.748,1.955 -7.037,4.617 -9.574,7.563 -1.861,2.217 -2.296,4.891 -1.702,7.998 2.365,11.732 14.338,18.563 23.98,21.5 7.333,2.113 15.285,3.381 23.145,3.381 13.193,0 26.16,-3.564 35.642,-12.623 4.137,-4.74 5.954,-12.225 5.792,-19.227 -1.519,-9.938 -7.254,-20.221 -17.787,-23.327 -19.1,-4.388 -40.371,-3.052 -59.381,-7.792 -0.548,-0.344 -1.576,-1.12 -1.234,-1.817 4.09,-2.216 8.637,-3.403 13.103,-4.466 16.555,-2.57 33.725,-3.964 50.529,-5.208 4.568,-0.355 9.824,-0.675 13.857,-3.222 1.679,-2.273 3.93,-5.392 3.051,-8.305 -2.948,-1.462 -4.754,-2.604 -7.655,-3.358 -8.487,-2.332 -16.679,-3.167 -25.077,-3.167"
     id="path8" />
  <path
     d="m 293.11651,195.622 c -3.427,0 -6.718,-1.041 -9.229,-1.943 -3.428,-4.83 -3.76,-10.727 -4.113,-16.975 -0.058,-1.018 -0.113,-2.057 -0.206,-3.107 -0.811,-19.799 1.074,-40.624 5.939,-65.528 0.116,-0.39 0.23,-0.846 0.32,-1.303 0.435,-1.874 0.868,-3.815 2.994,-4.17 6.648,2.868 10.339,9.597 9.961,18.439 -0.01,1.244 0.184,2.456 0.366,3.621 0.251,1.564 0.48,3.05 0.228,4.569 0.184,6.34 0.527,12.852 0.88,19.159 0.766,14.051 1.566,28.594 0.629,42.279 -0.343,2.479 -2.604,3.736 -5.004,4.729 -0.868,0.15 -1.804,0.23 -2.765,0.23"
     fill="#0a0b0b"
     id="path9" />
  <path
     d="m 288.73051,102.859 c 6.604,2.879 10.168,9.481 9.825,18.176 -0.023,1.268 0.172,2.479 0.353,3.656 0.241,1.553 0.48,3.027 0.218,4.489 v 0.045 0.057 c 0.184,6.283 0.549,12.795 0.892,19.102 0.766,14.051 1.553,28.582 0.639,42.232 -0.33,2.355 -2.512,3.566 -4.819,4.525 -0.88,0.16 -1.794,0.24 -2.72,0.24 -3.313,0 -6.534,-0.994 -8.99,-1.885 -3.438,-4.832 -3.77,-10.646 -4.125,-16.805 -0.044,-1.029 -0.113,-2.068 -0.181,-3.096 -0.824,-19.799 1.049,-40.59 5.905,-65.426 0.125,-0.422 0.239,-0.88 0.343,-1.349 0.398,-1.836 0.809,-3.572 2.66,-3.961 m 0.069,-0.502 c -2.855,0.469 -2.902,3.507 -3.542,5.677 -4.181,21.443 -6.866,43.012 -5.917,65.573 0.524,7.438 0.297,14.508 4.466,20.303 2.913,1.051 6.044,1.953 9.311,1.953 0.938,0 1.896,-0.068 2.857,-0.252 2.216,-0.912 4.786,-2.217 5.162,-4.936 1.349,-19.9 -0.924,-41.229 -1.53,-61.416 0.458,-2.684 -0.594,-5.323 -0.57,-8.224 0.34,-8.375 -2.88,-15.548 -10.237,-18.678"
     id="path10" />
  <path
     d="m 584.23551,273.452 c -5.416,0 -9.186,-4.111 -11.848,-7.676 -4.271,-7.871 -6.008,-17.479 -4.649,-25.682 3.714,-18.713 10.111,-38.338 18.976,-58.297 l 0.058,-0.125 -0.069,-0.102 c -2.775,-4.777 -4.946,-11.826 -5.563,-17.971 -0.936,-15.115 5.438,-33.599 17.046,-49.432 0.89,-1.074 1.77,-2.216 2.684,-3.382 3.668,-4.695 7.461,-9.561 12.75,-12.372002 0.057,-0.035 0.147,-0.046 0.239,-0.046 0.662,0 1.463,0.915 1.702,1.691002 0.378,2.993 -0.023,5.712 -1.2,8.009 -1.21,2.878 -2.421,5.208 -3.586,7.459 -0.525,1.005 -1.052,2.011 -1.576,3.05 -0.892,1.828 -1.806,3.644 -2.721,5.46 -3.54,7.163 -7.242,14.554 -10.098,21.9 l -0.092,0.252 c -1.76,5.105 -4.146,12.086 -1.166,18.311 l 0.229,0.469 0.207,-0.469 c 0.135,-0.318 0.959,-1.518 1.736,-2.672 0.936,-1.359 1.804,-2.65 2.01,-3.096 10.167,-15.789 18.849,-25.51 31.324,-37.905 l 1.119,-1.142 c 5.165,-5.197 12.224,-12.326 20.106,-12.326 2.308,0 4.582,0.616 6.787,1.851 4.844,4.192 7.379,8.808 9.869,14.875 5.323,12.211 2.045,27.406 -3.563,37.072 -6.354,11.092 -14.236,17.807 -24.677,26.078 -8.5,5.781 -17.822,8.719 -27.691,8.719 -0.777,0 -1.544,-0.012 -2.331,-0.059 h -0.148 l -0.069,0.113 c -1.588,2.549 -4.58,8.01 -6.295,12.203 -3.22,7.893 -11.035,34.58 -12.885,43.914 l -2.994,18.871 c -0.114,0.869 -1.21,2.068 -2.628,2.412 -0.321,0.024 -0.662,0.045 -0.993,0.045 m 69.811,-149.516 c -0.56,0 -1.017,0.239 -1.279,0.697 -9.254,11.492 -18.005,22.356 -27.418,35.54 -0.891,1.234 -1.735,2.377 -2.581,3.518 -2.103,2.844 -4.284,5.793 -6.947,9.963 -0.067,0.104 -0.09,0.273 0,0.455 0.149,0.266 0.583,0.617 2.675,0.617 1.267,0 2.971,-0.125 5.05,-0.387 8.029,-1.029 23.704,-11.289 30.57,-21.775 3.176,-4.9 4.865,-13.17 4.661,-16.952 -0.229,-3.953 -1.234,-7.655 -2.879,-10.682 -0.343,-0.571 -1.144,-0.994 -1.852,-0.994"
     fill="#0a0b0b"
     id="path11" />
  <path
     d="m 613.85751,98.619998 c 0.537,0 1.256,0.823 1.451,1.439002 0.376,2.981 0,5.644 -1.177,7.939 -1.2,2.856 -2.421,5.165 -3.587,7.414 -0.515,1.006 -1.039,2.011 -1.566,3.05 -0.9,1.841 -1.804,3.667 -2.706,5.497 -3.577,7.15 -7.266,14.542 -10.144,21.899 l -0.07,0.264 c -1.759,5.139 -4.18,12.178 -1.153,18.496 l 0.445,0.926 0.423,-0.938 c 0.137,-0.309 0.982,-1.545 1.725,-2.629 1.098,-1.621 1.817,-2.707 1.987,-3.084 10.169,-15.799 18.851,-25.51 31.303,-37.905 l 1.143,-1.13 c 5.118,-5.165 12.145,-12.27 19.911,-12.27 2.251,0 4.489,0.605 6.639,1.805 4.82,4.182 7.335,8.774 9.802,14.794 5.3,12.133 2.033,27.246 -3.542,36.853 -6.329,11.047 -14.2,17.742 -24.595,25.979 -8.489,5.77 -17.743,8.693 -27.566,8.693 -0.777,0 -1.544,-0.023 -2.331,-0.057 l -0.273,-0.01 -0.16,0.238 c -1.578,2.549 -4.57,8.031 -6.307,12.225 -3.21,7.904 -11.035,34.627 -12.887,43.982 l -3.016,18.883 c -0.091,0.789 -1.143,1.885 -2.377,2.182 -0.342,0.035 -0.662,0.047 -0.993,0.047 -5.312,0 -9.014,-4.045 -11.618,-7.506 -4.273,-7.859 -5.998,-17.41 -4.638,-25.543 3.724,-18.701 10.098,-38.318 18.964,-58.264 l 0.091,-0.229 -0.113,-0.217 c -2.765,-4.729 -4.936,-11.756 -5.529,-17.855 -0.938,-15.057 5.415,-33.484 16.963,-49.249 0.903,-1.086 1.795,-2.24 2.709,-3.405 3.645,-4.684 7.426,-9.517 12.634,-12.281002 0.044,-0.021 0.1,-0.033 0.158,-0.033 m 4.638,76.348002 c 1.267,0 2.971,-0.125 5.083,-0.389 9.653,-1.234 24.974,-13.07 30.73,-21.9 3.21,-4.922 4.913,-13.273 4.719,-17.09 -0.239,-3.987 -1.244,-7.711 -2.925,-10.807 -0.399,-0.629 -1.256,-1.085 -2.057,-1.085 -0.639,0 -1.177,0.297 -1.462,0.765 -9.253,11.504 -18.004,22.368 -27.441,35.575 -0.868,1.223 -1.736,2.365 -2.569,3.518 -2.112,2.857 -4.295,5.803 -6.957,9.973 -0.093,0.162 -0.16,0.424 0,0.709 0.184,0.331 0.685,0.731 2.879,0.731 m -4.638,-76.827002 c -0.113,0 -0.228,0.023 -0.354,0.057 -6.66,3.553002 -11.047,10.419002 -15.524,15.822002 -9.665,13.206 -18.175,31.93 -17.067,49.602 0.617,6.193 2.822,13.309 5.587,18.072 -8.237,18.543 -15.002,38.271 -18.987,58.365 -1.485,8.9 0.743,18.588 4.673,25.865 2.146,2.855 6.146,7.77 12.052,7.77 0.343,0 0.696,-0.023 1.039,-0.059 1.486,-0.354 2.697,-1.621 2.812,-2.615 l 3.004,-18.838 c 1.806,-9.139 9.572,-35.781 12.875,-43.881 1.713,-4.191 4.707,-9.643 6.261,-12.154 0.798,0.033 1.576,0.045 2.354,0.045 10.327,0 19.648,-3.211 27.828,-8.773 9.995,-7.893 18.266,-14.816 24.744,-26.148 6.158,-10.592 8.637,-25.693 3.586,-37.267 -2.444,-5.963 -4.935,-10.646 -9.983,-15.011 -2.365,-1.324 -4.661,-1.885 -6.912,-1.885 -8.556,0 -16.039,8.203 -21.385,13.549 -13.252,13.184 -21.522,22.667 -31.383,37.985 -0.376,0.822 -3.426,5.061 -3.734,5.77 -2.983,-6.238 -0.504,-13.264 1.268,-18.381 3.564,-9.163 8.316,-18.21 12.817,-27.337 1.691,-3.394 3.404,-6.364 5.164,-10.51 1.119,-2.205 1.623,-4.923 1.2,-8.191002 -0.245,-0.812 -1.113,-1.852 -1.935,-1.852 m 4.638,76.346002 c -2.925,0 -2.468,-0.697 -2.468,-0.697 3.702,-5.805 6.397,-9.127 9.517,-13.48 9.412,-13.17 18.129,-24.013 27.418,-35.551 0.262,-0.423 0.65,-0.583 1.084,-0.583 0.641,0 1.349,0.389 1.622,0.868 1.681,3.05 2.651,6.741 2.879,10.58 0.194,3.813 -1.53,12.004 -4.638,16.803 -6.648,10.191 -22.07,20.609 -30.41,21.672 -2.284,0.287 -3.886,0.388 -5.004,0.388"
     id="path12" />
  <path
     d="m 117.88951,218.366 c -3.067,0 -7.208,-0.73 -9.488,-4.238 -3.404,-6.283 -4.575,-13.846 -5.158,-18.975 l -0.029,-0.148 -0.114,-0.045 C 79.737508,184.267 58.083508,166.651 42.106508,145.356 c -2.25,-4.09 -2.679,-10.647 0.971,-14.703 14.561,-15.389 35.055,-19.832 58.394002,-23.683 1.999,-0.342 3.404,-0.388 4.061,-0.388 0.268,0 0.657,0.023 0.657,0.023 l 0.023,-0.252 c 0.045,-0.88 0.092,-1.851 0.125,-2.845 0.132,-3.039 0.281,-6.477002 0.868,-8.750002 0.103,-7.917 1.428,-15.856 2.713,-23.545 0.434,-2.594 0.862,-5.187 1.251,-7.756 l 0.103,-0.778 c 0.331,-2.433 0.646,-4.729 2.707,-5.643 0.326,-0.115 0.674,-0.172 1.028,-0.172 2.234,0 4.598,2.491 6.991,7.414 2.143,5.347 3.873,17.696 3.896,17.822 0.811,6.706 1.405,13.287 1.93,19.078002 l 0.223,2.444 1.474,0.263 c 2.667,-0.103 5.267,-0.159 7.779,-0.159 8.06,0 15.852,0.56 23.82,1.736 l 3.805,0.628 c 13.447,2.193 25.076,4.113 35.711,12.007 8.419,7.333 11.63,14.428 9.756,21.705 -2.959,7.563 -7.986,12.92 -14.108,15.047 -1.258,0.318 -2.627,0.48 -4.057,0.49 -5.608,0 -10.452,-2.469 -12.396,-3.6 l 0.023,-0.938 c 5.005,-2.318 11.699,-6.281 12.817,-14.027 -0.09,-2.719 -6.327,-3.907 -10.897,-4.787 -0.755,-0.148 -1.439,-0.286 -2.011,-0.411 -13.475,-3.188 -25.733,-5.3 -37.477,-6.443 -4.164,-0.411 -7.008,-0.422 -9.756,-0.434 -1.159,0 -2.33,-0.011 -3.593,-0.045 h -0.257 l 0.034,0.525 c 0.48,7.859 1.148,18.633 0.714,25.42 -0.045,5.059 -0.034,9.549 -0.022,13.799 0.01,7.438 0.022,13.869 -0.211,21.215 l -0.012,0.158 1.628,0.605 c 12.177,2.596 20.363,3.131 28.924,3.131 2.342,0 4.684,-0.045 7.129,-0.078 2.468,-0.035 5.027,-0.082 7.792,-0.092 21.499,-2.125 39.974,-8.479 54.915,-18.873 11.562,-8.043 17.764,-18.461 18.439,-30.982 1.096,-8.042 -2.24,-15.844 -5.474,-23.395 -1.221,-2.811 -2.354,-5.485 -3.277,-8.146 -10.814,-16.153002 -25.242,-31.095002 -41.738,-43.239002 -30.514,-21.717 -67.842,-36.282 -114.132002,-44.542 -13.743,-1.714 -26.681,-3.302 -40.607,-3.302 -4.804,0 -9.379,0.183 -13.965,0.571 l -0.348,0.034 c -4.016,0.367 -9.019,0.812 -12.96,4.078 l -0.132,0.126 0.057,0.148 c 0.611,1.645 2.491,2.593 4.33,3.518 0.634,0.32 1.239,0.617 1.777,0.949 l 0.502,0.342 c 1.183,0.753 1.838,1.176 1.838,2.353 -1.896,2.229 -5.557,2.697 -8.145,2.846 -0.72,0.091 -2.21,0.228 -4.124,0.228 -3.0440001,0 -8.4480001,-0.376 -10.5330001,-2.901 -0.74900003,-0.915 -0.99400003,-2.033 -0.74900003,-3.347 1.59400003,-6.614 5.64900003,-13.549 9.64200003,-16.4499998 14.4230001,-6.1 31.6330001,-9.20800002 51.0820001,-9.20800002 18.93,0 39.744002,2.87800002 61.838002,8.57900002 2.034,0.629 4.096,1.269 6.152,1.8959998 8.973,2.753 18.239,5.587 26.909,9.185 35.557,13.857 66.573,34.409 89.685,59.44 9.596,10.27 17.615,22.848002 23.829,37.402002 2.514,8.579 4.867,16.576 3.496,26.732 -3.141,19.088 -14.645,35.369 -33.288,47.111 -13.139,8.604 -27.989,13.744 -46.724,16.211 -5.348,0.697 -12.258,1.041 -20.542,1.041 -18.129,0 -38.71,-1.783 -42.206,-3.188 l -0.326,-0.137 -0.012,0.342 c -0.12,5.336 -2.319,10.441 -5.346,12.43 -1.323,0.572 -3.905,1.177 -6.63,1.177 M 88.501508,126.529 c -3.707,0.789 -7.443,1.348 -11.064,1.885 -10.402,1.542 -20.237,3.004 -28.955,9.745 -1.828,1.942 -1.125,4.627 0.023,6.352 12.098,14.131 28.399,25.373 45.947,31.666 4.318,1.52 7.340002,2.33 8.985002,2.459 l 0.258,0.01 v -0.264 c -0.058,-12.576 0.634,-24.834 1.359,-37.813 l 0.434,-7.769 c 0.2,-2.467 -0.063,-6.237 -0.063,-6.271 l -0.012,-0.195 -0.183,-0.034 c -1.25,-0.24 -2.633,-0.354 -4.227,-0.354 -1.821002,0 -3.717002,0.16 -5.552002,0.309 -1.793,0.16 -3.638,0.309 -5.397,0.309 -0.502,0 -0.994,-0.012 -1.485,-0.035 l -0.034,-0.012 z"
     fill="#0a0b0b"
     id="path13" />
  <path
     d="m 61.060508,0.38599818 c 18.907,0 39.693002,2.89000002 61.758002,8.56800002 2.045,0.639 4.09,1.2679998 6.152,1.8959998 8.962,2.742 18.227,5.586 26.904,9.185 35.523,13.847 66.494,34.387 89.581,59.381 9.586,10.236 17.593,22.803002 23.773,37.266002 l 0.058,0.171 c 2.468,8.42 4.799,16.371 3.45,26.482 -3.141,19.008 -14.624,35.242 -33.198,46.953 -13.091,8.578 -27.921,13.707 -46.632,16.186 -5.325,0.686 -12.224,1.041 -20.496,1.041 -18.102,0 -38.63,-1.783 -42.12,-3.189 l -0.639,-0.25 -0.023,0.686 c -0.121,5.176 -2.319,10.305 -5.175,12.189 -1.331,0.584 -3.885,1.178 -6.563,1.178 -3.016,0 -7.065,-0.721 -9.276,-4.102 -3.382,-6.26 -4.547,-13.789 -5.136,-18.908 l -0.034,-0.262 -0.246,-0.127 C 79.882508,184.072 58.256508,166.468 42.332508,145.263 c -2.223,-4.031 -2.64,-10.485 0.925,-14.438 14.509,-15.342 34.969,-19.775 58.257002,-23.624 1.976,-0.332 3.37,-0.378 4.015,-0.378 0.27,0 0.395,0.012 0.406,0.012 l 0.479,0.023 0.035,-0.48 c 0.051,-0.902 0.096,-1.861 0.143,-2.855 0.114,-3.027 0.268,-6.455002 0.857,-8.706002 l 0.011,-0.057 v -0.057 c 0.092,-7.837 1.411,-15.766 2.702,-23.431 0.417,-2.558 0.862,-5.209 1.251,-7.779 l 0.102,-0.777 c 0.332,-2.365 0.635,-4.593 2.531,-5.438 0.313,-0.114 0.64,-0.172 0.97,-0.172 2.125,0 4.41,2.445 6.758,7.255 2.13,5.335 3.86,17.65 3.883,17.765 0.811,6.694 1.405,13.264 1.931,19.055002 l 0.211,2.284 0.022,0.367 0.377,0.067 1.286,0.241 h 0.045 0.057 c 2.61,-0.115 5.21,-0.171 7.723,-0.171 8.049,0 15.828,0.559 23.762,1.736 1.286,0.205 2.559,0.422 3.81,0.617 13.424,2.216 25.007,4.124 35.586,11.938 8.361,7.277 11.539,14.313 9.71,21.432 -2.937,7.527 -7.904,12.828 -13.937,14.918 -1.256,0.32 -2.604,0.48 -4.022,0.48 -5.425,0 -10.144,-2.342 -12.131,-3.496 v -0.639 c 5.049,-2.342 11.72,-6.352 12.818,-14.235 -0.07,-2.844 -6.444,-4.079 -11.082,-4.97 -0.754,-0.148 -1.439,-0.274 -2.01,-0.399 -13.482,-3.199 -25.751,-5.312 -37.506,-6.455 -4.182,-0.411 -7.021,-0.422 -9.785,-0.434 -1.154,-0.012 -2.313,-0.012 -3.576,-0.045 l -0.526,-0.011 0.035,0.525 0.012,0.239 c 0.491,7.871 1.159,18.645 0.725,25.441 -0.046,5.037 -0.035,9.471 -0.023,13.768 0.012,7.447 0.023,13.891 -0.211,21.225 l -0.011,0.344 0.325,0.123 1.521,0.563 c 12.155,2.58 20.368,3.117 28.943,3.117 2.341,0 4.688,-0.045 7.134,-0.08 2.479,-0.045 5.039,-0.08 7.847,-0.092 21.501,-2.123 40.008,-8.498 54.996,-18.918 11.619,-8.064 17.868,-18.551 18.542,-31.129 1.106,-8.123 -2.25,-15.96 -5.495,-23.535 -1.211,-2.82 -2.342,-5.471 -3.268,-8.133 l -0.012,-0.069 -0.035,-0.046 c -10.805,-16.120002 -25.269,-31.074002 -41.788,-43.252002 -30.542,-21.717 -67.904,-36.305 -114.286002,-44.587 -13.714,-1.703 -26.664,-3.302 -40.583,-3.302 -4.821,0 -9.391,0.183 -13.989,0.583 l -0.354,0.022 c -4.043,0.377 -9.087,0.833 -13.097,4.159 l -0.258,0.205 0.115,0.332 c 0.646,1.725 2.576,2.695 4.444,3.644 0.634,0.319 1.239,0.628 1.742,0.925 l 0.532,0.342 c 1.193,0.789 1.656,1.13 1.707,1.977 -1.919,2.216 -5.421,2.639 -7.934,2.788 -0.714,0.08 -2.188,0.217 -4.096,0.217 -2.9930001,0 -8.3170001,-0.366 -10.3380001,-2.811 -0.70400003,-0.856 -0.93700003,-1.873 -0.69200003,-3.119 1.58300003,-6.545 5.57000003,-13.389 9.50000013,-16.2909998 14.422,-6.1 31.587,-9.19500002 50.99,-9.19500002 m 29,125.93800182 c -0.501,0 -0.994,-0.012 -1.484,-0.045 h -0.057 l -0.068,0.012 c -3.701,0.798 -7.443,1.347 -11.047,1.885 -10.447,1.553 -20.306,3.015 -29.125,9.846 -1.896,2.011 -1.171,4.822 0.069,6.66 12.098,14.145 28.451,25.408 46.033,31.727 4.33,1.518 7.380002,2.354 9.042002,2.467 l 0.525,0.035 -0.011,-0.527 c -0.057,-12.564 0.635,-24.811 1.36,-37.779 0.137,-2.558 0.292,-5.151 0.428,-7.79 0.211,-2.491 -0.046,-6.146 -0.058,-6.307 l -0.022,-0.354 -0.36,-0.08 c -1.28,-0.25 -2.668,-0.365 -4.273,-0.365 -1.844002,0 -3.741002,0.149 -5.580002,0.297 -1.779,0.158 -3.629,0.318 -5.372,0.318 m -29,-126.41800182 c -17.918,0 -35.551,2.60400002 -51.2360001,9.25200002 -4.153,3.0279998 -8.18,10.1559998 -9.72200003,16.6099998 -1.04,5.347 6.04900003,6.523 11.49800013,6.523 1.617,0 3.079,-0.103 4.153,-0.229 2.936,-0.172 6.438,-0.72 8.368,-3.096 0,-1.462 -0.948,-1.874 -2.456,-2.89 -2.051,-1.244 -5.232,-2.227 -6.014,-4.341 4.009,-3.313 9.042,-3.69 13.194,-4.066 4.748,-0.411 9.386,-0.571 13.943,-0.571 13.909,0 27.046,1.622 40.562,3.29 41.223002,7.369 80.059002,20.335 114.011002,44.508 16.406,12.063 30.686,26.732 41.675,43.125002 3.451,9.962 10.225,20.505 8.739,31.449 -0.72,13.127 -7.493,23.262 -18.335,30.789 -15.845,11.035 -34.751,16.861 -54.778,18.838 -5.506,0.012 -10.237,0.16 -14.925,0.16 -8.307,0 -16.52,-0.48 -28.835,-3.107 l -1.462,-0.525 c 0.372,-11.607 0.125,-21.26 0.234,-35.016 0.428,-6.865 -0.234,-17.581 -0.737,-25.715 4.33,0.115 7.449,-0.091 13.32,0.48 12.927,1.256 25.316,3.553 37.466,6.443 3.77,0.822 12.636,1.999 12.704,4.912 -0.982,7.014 -6.569,11.045 -12.818,13.915 v 1.232 c 3.132,1.863 7.837,3.691 12.611,3.691 1.395,0 2.788,-0.148 4.159,-0.492 6.512,-2.271 11.413,-7.938 14.257,-15.215 2.343,-9.129 -3.609,-16.52 -9.847,-21.97 -11.698,-8.658 -24.711,-10.167 -39.636,-12.669 -8.179,-1.211 -15.971,-1.736 -23.842,-1.736 -2.57,0 -5.146,0.046 -7.746,0.172 l -1.285,-0.24 c -0.583,-6.420002 -1.228,-13.754002 -2.141,-21.352002 0,0 -1.742,-12.44 -3.919,-17.89 -1.564,-3.21 -4.129,-7.552 -7.203,-7.552 -0.377,0 -0.749,0.057 -1.136,0.206 -2.411,1.063 -2.547,3.862 -2.948,6.592 -1.519,10.213 -3.827,20.757 -3.953,31.279 -0.788,3.016 -0.788,7.917002 -1.005,11.641002 0,0 -0.154,0 -0.446,0 -0.667,0 -2.084,0.045 -4.096,0.389 -21.219002,3.496 -43.444002,7.813 -58.524002,23.762 -3.605,3.998 -3.382,10.669 -0.995,15 15.474,20.643 36.997,38.658 61.084002,49.684 0.725,6.338 2.062,13.285 5.198,19.064 2.176,3.359 6.106,4.365 9.693,4.365 2.798,0 5.381,-0.604 6.763,-1.223 3.147,-2.055 5.335,-7.357 5.449,-12.611 3.49,1.406 23.729,3.221 42.309,3.221 7.541,0 14.807,-0.297 20.563,-1.061 17.742,-2.32 32.821,-7.072 46.839,-16.234 17.752,-11.195 30.045,-26.961 33.404,-47.285 1.369,-10.292 -1.063,-18.472 -3.531,-26.869 -5.975,-13.994 -13.834,-26.732002 -23.875,-37.459002 -24.426,-26.447 -56.059,-46.359 -89.771,-59.496 -10.646,-4.422 -21.991,-7.644 -33.083,-11.1039998 -19.209,-4.945 -40.744002,-8.57800002 -61.896002,-8.57800002 m 29,126.89700182 c 3.548,0 7.323,-0.617 10.950002,-0.617 1.417,0 2.822,0.092 4.176,0.366 0,0 0.269,3.747 0.057,6.226 -0.874,16.278 -1.856,30.592 -1.788,45.616 -1.942,-0.137 -5.570002,-1.268 -8.922002,-2.443 -17.364,-6.238 -33.53,-17.205 -45.821,-31.588 -1.011,-1.496 -1.852,-4.125 -0.086,-6.009 11.755,-9.094 25.761,-8.557 39.927,-11.595 0.49,0.033 1.005,0.044 1.507,0.044"
     id="path14" />
</svg>
