<?xml version="1.0" encoding="utf-8"?>
<!-- Generator: Adobe Illustrator 21.1.0, SVG Export Plug-In . SVG Version: 6.00 Build 0)  -->
<svg version="1.1" baseProfile="tiny" id="l" xmlns="http://www.w3.org/2000/svg" xmlns:xlink="http://www.w3.org/1999/xlink"
	 x="0px" y="0px" width="300px" height="61px" viewBox="0 0 300 61" overflow="scroll" xml:space="preserve">
<path fill="#006A2A" d="M240.8,47.7v-1.9c0-0.3-0.1-0.4-0.4-0.4h-4.8c-0.3,0-0.4,0.1-0.4,0.4v1.9H232v-1.9c0-0.3-0.1-0.4-0.4-0.4
	h-4.8c-0.3,0-0.4,0.1-0.4,0.4v1.9h-1.6v10.7h17.8V47.7H240.8z"/>
<path d="M122.1,2.5h-15.6L89.5,58.3H103l3.1-11.7h16.3l3.1,11.7h13.5L122.1,2.5z M119.7,36.3H109l5.3-19.7L119.7,36.3z"/>
<polygon points="69.7,47 69.7,2.5 57.4,2.5 57.4,58.3 83.3,58.3 86.7,47 "/>
<path d="M44.4,41.9c-4.5,4.1-8.5,6.7-14.9,6.7c-9.7,0-16.4-8.2-16.4-18v-0.1c0-9.8,6.8-17.8,16.4-17.8c5.6,0,10.1,2.5,14.5,6.4
	l7.9-9.3C46.6,4.6,40.3,1,29.5,1C12.2,1,0,14.3,0,30.6v0.1c0,16.4,12.4,29.5,29.1,29.5c10.9,0,17.3-4,23.2-10.2L44.4,41.9z"/>
<path d="M292.1,41.9c-4.5,4.1-8.5,6.7-14.9,6.7c-9.7,0-16.4-8.2-16.4-18v-0.1c0-9.8,6.8-17.8,16.4-17.8c5.6,0,10.1,2.5,14.5,6.4
	l7.9-9.3C294.3,4.6,288,1,277.2,1c-17.3,0-29.5,13.4-29.5,29.6v0.1c0,16.4,12.4,29.5,29.1,29.5c10.9,0,17.3-4,23.2-10.2L292.1,41.9z
	"/>
<path d="M160,25.4c-9.7-2.5-12.2-3.7-12.2-7.5v-0.1c0-2.7,2.5-4.9,7.2-4.9c4.6,0,9.6,2,14.5,5.5l0,0c0.8-8.3,3.3-11.7,3.3-11.7
	c-5.1-3.1-10.9-4.9-17.6-4.9c-11.5,0-19.8,6.8-19.8,17.2V19c0,11.3,7.4,14.5,18.7,17.5c9.4,2.5,11.3,4.1,11.3,7.2v0.1
	c0,3.3-3,5.3-8.1,5.3h-0.1c-5.7,0-9.6-1.6-16-4.4l4.1,13.5c3.8,1.2,7.8,1.9,11.7,1.9c12.2,0,20.8-6.4,20.8-17.6v-0.1
	C177.9,32.5,171.4,28.4,160,25.4z"/>
<path d="M201.2,25.4c-9.7-2.5-12.2-3.7-12.2-7.5v-0.1c0-2.7,2.5-4.9,7.2-4.9c4.8,0,9.7,2,14.6,5.6c0.8-8.3,3.3-11.7,3.3-11.7l0,0
	c-5.1-3.3-11.1-5.1-17.9-5.1c-11.5,0-19.8,6.8-19.8,17.2V19c0,11.3,7.4,14.5,18.7,17.5c9.4,2.5,11.3,4.1,11.3,7.2v0.1
	c0,3.3-3,5.3-8.2,5.3c-5.2,0-9.6-1.8-13.8-4.6l0,0c0,0-0.3,6.1-3.7,11.3c5.3,2.9,11.2,4.4,17.2,4.4c12.2,0,20.8-6.4,20.8-17.6v-0.1
	C219.3,32.5,212.7,28.4,201.2,25.4z"/>
<path fill="#181716" d="M240.6,1.9l-1.6,0.3l-0.3-1.9c0-0.1-0.1-0.3-0.4-0.3l0,0l-4.8,0.7c-0.3,0-0.3,0.3-0.3,0.4l0.3,1.9l-3.3,0.4
	l-0.3-1.9c0-0.1-0.3-0.3-0.4-0.3l0,0l-4.8,0.7c-0.3,0-0.3,0.3-0.3,0.4l0.3,1.9l-1.6,0.3l1.4,10.7l17.6-2.3L240.6,1.9z"/>
<path fill="#DE007D" d="M241.7,20.9l0.3-1.9c0-0.3-0.1-0.4-0.3-0.4l-4.8-0.7c-0.3,0-0.4,0.1-0.4,0.3l-0.3,1.9l-3.3-0.4l0.3-1.9
	c0-0.3-0.1-0.4-0.3-0.4l-4.8-0.7c-0.3,0-0.4,0.1-0.4,0.3l-0.3,1.9l-1.6-0.3l-1.5,10.5l17.6,2.5l1.5-10.5L241.7,20.9z"/>
<path fill="#00983F" d="M240.8,36.9V35c0-0.3-0.1-0.4-0.4-0.4h-4.8c-0.3,0-0.4,0.1-0.4,0.4v1.9H232V35c0-0.3-0.1-0.4-0.4-0.4h-4.8
	c-0.3,0-0.4,0.1-0.4,0.4v1.9h-1.6v10.9h17.8V36.9H240.8z"/>
</svg>
