<?xml version="1.0" encoding="UTF-8" standalone="no"?>
<!-- Generator: Adobe Illustrator 22.0.1, SVG Export Plug-In . SVG Version: 6.00 Build 0)  -->

<svg
   version="1.1"
   id="Layer_1"
   x="0px"
   y="0px"
   viewBox="0 0 379.93528 179.82834"
   xml:space="preserve"
   sodipodi:docname="logo-theme-bluey.svg"
   inkscape:version="1.4.4 (dcaf3e7d9e, 2026-05-05)"
   width="379.93527"
   height="179.82834"
   xmlns:inkscape="http://www.inkscape.org/namespaces/inkscape"
   xmlns:sodipodi="http://sodipodi.sourceforge.net/DTD/sodipodi-0.dtd"
   xmlns="http://www.w3.org/2000/svg"
   xmlns:svg="http://www.w3.org/2000/svg"><defs
   id="defs111" /><sodipodi:namedview
   id="namedview111"
   pagecolor="#ffffff"
   bordercolor="#111111"
   borderopacity="1"
   inkscape:showpageshadow="0"
   inkscape:pageopacity="0"
   inkscape:pagecheckerboard="1"
   inkscape:deskcolor="#d1d1d1"
   inkscape:zoom="1.5962364"
   inkscape:cx="90.838674"
   inkscape:cy="130.61975"
   inkscape:window-width="1920"
   inkscape:window-height="1044"
   inkscape:window-x="1920"
   inkscape:window-y="0"
   inkscape:window-maximized="1"
   inkscape:current-layer="Layer_1" />
<style
   type="text/css"
   id="style1">
	.st0{fill:#FFFFFF;}
	.st1{fill:#FFED00;}
	.st2{fill:#E3000B;}
	.st3{fill:none;}
	.st4{fill:#86C7F9;}
	.st5{fill:#D4EAF9;}
	.st6{fill:#90C6EB;}
	.st7{fill:#86A7C0;}
	.st8{fill:#54738C;}
	.st9{fill:#94B7D3;}
	.st10{fill:#71A3C8;}
	.st11{fill:#476073;}
	.st12{fill:#4D4B6C;}
	.st13{fill:#373535;}
	.st14{fill:#292929;}
	.st15{fill:#4C4C6C;}
	.st16{fill:#F3D37A;}
	.st17{fill:#D5EFFC;}
	.st18{fill:#4D6D85;}
	.st19{fill:#86A9C9;}
	.st20{fill:#95C7EB;}
	.st21{fill:#CB5959;}
	.st22{fill:#7C868F;}
	.st23{fill:#924142;}
	.st24{fill:#7D6538;}
	.st25{fill:#3C3C4C;}
	.st26{fill:#9797A3;}
</style>

<g
   id="g111"
   transform="translate(-219.9,-0.17166217)">
	<polygon
   class="st3"
   points=""
   id="polygon7" />
	<path
   class="st4"
   d="m 470.1,88.1 c 0,-0.1 0.1,-0.2 0.1,-0.3 0.1,-0.7 0.4,-1.4 0.8,-1.9 -1.1,-0.8 -2.1,-2 -1.9,-3.5 0.1,-1.1 0.7,-2.1 1.6,-2.6 0.7,-0.4 1.5,-0.6 2.3,-0.6 -0.5,-0.5 -0.8,-1.2 -0.9,-1.9 -0.2,-1.1 0.2,-2.2 1,-2.9 0.8,-0.6 1.7,-0.8 2.7,-0.6 v 0 c 0.2,-0.1 0.4,-0.3 0.6,-0.4 0.2,-0.5 0.3,-1.1 0.5,-1.6 0.4,-1.3 0.8,-2.7 1.1,-4.1 0.3,-1.1 0.5,-2.1 0.8,-3.2 0.4,-1.5 0.6,-3.1 0.8,-4.6 0,-0.1 0,-0.2 0,-0.3 0.1,-0.5 0.1,-0.9 0.1,-1.4 0,-0.5 0.2,-0.9 0.2,-1.4 0,-1 0,-2 0,-3 0,-0.2 0,-0.4 0,-0.6 -0.2,-0.7 -0.1,-1.4 -0.3,-2.1 -0.2,-1.2 -0.6,-2.3 -1.1,-3.4 -0.5,-0.9 -1.1,-1.7 -2,-2.3 -0.7,-0.5 -1.6,-0.8 -2.5,-0.9 -0.2,0 -0.4,0 -0.5,0 -0.4,0 -0.7,0 -1.1,0 -0.2,0 -0.4,0 -0.6,0.1 -1.5,0.3 -2.9,1 -4.2,1.9 -0.4,0.3 -0.8,0.6 -1.1,0.9 -0.5,0.6 -1,1.2 -1.4,1.9 -0.1,0.2 -0.2,0.3 -0.3,0.5 -0.7,1.3 -1.4,2.6 -2,3.9 -0.8,1.9 -1.5,3.9 -2,6 -0.5,2.2 -1.1,4.3 -1.9,6.5 -0.4,1.2 -1,2.3 -1.5,3.5 -0.3,0.7 -0.7,1.4 -1.1,2 -0.5,0.8 -0.9,1.6 -1.4,2.4 -0.9,1.5 -1.9,2.9 -2.9,4.3 -0.2,0.3 -0.4,0.5 -0.6,0.8 -0.1,0.1 -0.3,0.2 -0.4,0.2 v 0 c -0.2,0 -0.4,-0.1 -0.6,-0.1 -0.9,-0.4 -1.6,-1.1 -2.1,-1.9 -0.4,-0.7 -0.8,-1.5 -1.1,-2.3 -0.4,-1.2 -0.7,-2.4 -1,-3.6 -0.4,-1.6 -0.7,-3.2 -0.9,-4.8 -0.1,-0.3 -0.1,-0.6 -0.2,-0.9 -0.1,-0.6 -0.1,-1.1 -0.2,-1.7 -0.1,-0.8 -0.2,-1.7 -0.3,-2.5 -0.1,-0.7 -0.2,-1.4 -0.2,-2.1 -0.1,-0.5 -0.2,-1.1 -0.2,-1.6 0,-0.1 0,-0.3 0,-0.4 -0.1,-0.4 -0.1,-0.8 -0.1,-1.3 0,-0.4 -0.1,-0.9 -0.2,-1.3 0,-0.2 0,-0.4 -0.1,-0.6 -0.2,-1 -0.3,-1.9 -0.4,-2.9 -0.1,-0.7 -0.3,-1.4 -0.5,-2.1 -0.3,-0.8 -0.6,-1.6 -1,-2.3 -0.6,-1 -1.3,-2 -2.1,-2.9 -0.4,-0.4 -0.8,-0.8 -1.3,-1.2 -0.8,-0.7 -1.7,-1.2 -2.7,-1.6 -0.7,-0.3 -1.5,-0.4 -2.2,-0.5 -0.1,0 -0.2,0 -0.2,0 -0.1,0 -0.1,0 -0.2,0 -0.5,0 -0.9,0.1 -1.4,0.2 -1,0.2 -1.8,0.7 -2.6,1.4 -1.1,1 -2.1,2.2 -2.8,3.5 -0.4,0.8 -0.7,1.6 -0.9,2.4 -0.3,1.1 -0.6,2.2 -0.7,3.4 -0.1,0.6 -0.2,1.2 -0.3,1.8 -0.1,0.7 -0.2,1.4 -0.2,2.1 0,0.1 0,0.2 0,0.3 -0.1,0.4 -0.1,0.8 -0.1,1.2 0,0.7 0,1.4 -0.1,2.1 0,0.2 0,0.3 0,0.5 0,0.9 0,1.9 0,2.8 0,0.2 0,0.4 0,0.7 0.1,0.4 0.1,0.8 0.1,1.2 0,0.6 0,1.3 0.1,1.9 0,0.1 0,0.2 0,0.3 0,0.7 0.1,1.5 0.2,2.2 0.1,0.9 0.3,1.7 0.4,2.6 0.4,1.9 0.8,3.8 1.4,5.6 0.5,1.6 1.1,3.2 1.9,4.7 0.8,1.7 1.8,3.3 2.9,4.8 0.7,1 1.4,1.9 2.2,2.8 1.1,1.2 2.3,2.3 3.5,3.4 0.9,0.7 1.7,1.3 2.6,1.9 1.2,0.8 2.5,1.6 3.9,2.2 1,0.5 1.9,1 2.9,1.4 0.6,0.2 1.2,0.5 1.8,0.7 0.2,0.1 0.5,0.2 0.7,0.3 0,0 0.1,0.1 0.1,0.1 0,0.1 0,0.2 0,0.2 -0.5,1.6 -0.9,3.3 -1.4,4.9 -0.4,1.3 -0.8,2.5 -1.3,3.8 -0.7,1.8 -1.5,3.6 -2.4,5.3 -0.7,1.4 -1.4,2.7 -2.1,4 -0.7,1.3 -1.5,2.5 -2.2,3.8 -1.2,1.9 -2.4,3.8 -3.7,5.7 -0.5,0.8 -1.1,1.5 -1.7,2.2 -0.3,0.3 -0.5,0.6 -0.8,0.9 -0.4,0.4 -0.9,0.9 -1.3,1.3 -0.2,0.2 -0.5,0.4 -0.8,0.7 -0.5,0.5 -1.1,1 -1.7,1.5 -1.1,0.9 -2.2,1.7 -3.3,2.4 -0.5,0.3 -1,0.6 -1.4,0.9 -0.9,0.6 -1.9,1.1 -2.9,1.6 -1.5,0.8 -3,1.4 -4.5,2 -1.6,0.6 -3.2,1.1 -4.8,1.4 -0.7,0.1 -1.4,0.3 -2.2,0.4 -0.9,0.1 -1.8,0.3 -2.7,0.4 -0.6,0.1 -1.2,0.2 -1.8,0.2 h -0.1 v 0 c -0.1,0 -0.2,0 -0.2,0 -0.4,0.1 -0.7,0.1 -1.1,0.1 -0.4,0 -0.7,0.1 -1.1,0.1 -0.1,0 -0.2,0 -0.3,0 -0.6,0 -1.1,0 -1.7,0.1 -0.1,0 -0.2,0 -0.3,0 v 0 c -1.4,0 -2.8,0 -4.1,0 -1.2,0 -2.4,0 -3.5,0 -0.3,0 -0.5,0 -0.8,-0.1 -0.3,0 -0.6,-0.1 -0.9,-0.1 -0.2,0 -0.4,0 -0.6,0 -0.6,-0.1 -1.3,-0.2 -1.9,-0.3 -1.1,-0.2 -2.3,-0.5 -3.4,-0.8 -2,-0.6 -3.9,-1.4 -5.8,-2.3 -0.6,-0.3 -1.2,-0.7 -1.9,-1 -1,-0.5 -1.9,-1.1 -2.9,-1.7 -1,-0.6 -2,-1.3 -3,-2 -0.7,-0.5 -1.5,-1 -2.2,-1.5 -1.2,-0.9 -2.5,-1.8 -3.7,-2.6 -1.8,-1.3 -3.7,-2.5 -5.6,-3.5 -1.7,-1 -3.6,-1.8 -5.4,-2.5 -1.5,-0.5 -3,-0.9 -4.5,-1.2 -0.2,0 -0.4,-0.1 -0.6,-0.1 -0.6,-0.1 -1.2,-0.2 -1.8,-0.2 -0.1,0 -0.1,0 -0.2,0 -0.2,0 -0.4,0 -0.6,0 -0.2,0 -0.4,0 -0.6,0 -0.1,0 -0.1,0 -0.2,0 -0.9,0 -1.9,0.1 -2.8,0.4 -1.3,0.3 -2.6,0.8 -3.8,1.5 -1,0.6 -1.9,1.4 -2.7,2.3 -0.3,0.3 -0.5,0.6 -0.7,1 -1,1.7 -1.5,3.5 -1.5,5.5 0,0.4 0,0.8 0,1.3 0,0.2 0,0.3 0,0.5 0.1,0.6 0.2,1.2 0.3,1.8 0.4,2 1.1,3.9 2.1,5.6 0.9,1.5 1.9,2.8 3.1,4.1 0.5,0.5 1,0.9 1.5,1.4 0.7,0.6 1.4,1.2 2.2,1.7 1.6,1.1 3.3,2.2 5,3 1.1,0.6 2.2,1 3.3,1.5 1.4,0.6 2.8,1.1 4.3,1.6 0.9,0.3 1.7,0.5 2.6,0.8 1,0.3 2,0.6 3,0.8 1.3,0.3 2.6,0.6 3.9,0.9 1.8,0.4 3.6,0.7 5.4,1 0.4,0.1 0.9,0.1 1.3,0.2 0.7,0.1 1.5,0.3 2.2,0.3 0.1,0 0.2,0 0.3,0 0.3,0.1 0.6,0.1 0.9,0.1 0.2,0 0.3,0 0.5,0 0.4,0.1 0.8,0.1 1.3,0.1 0.1,0 0.3,0 0.4,0 0.4,0.1 0.9,0.1 1.3,0.1 0.2,0 0.3,0 0.5,0 0.6,0.1 1.1,0.1 1.7,0.1 0.3,0 0.6,0 0.9,0.1 0.4,0.1 0.8,0.1 1.3,0.1 0.6,0 1.3,0 1.9,0 0.2,0 0.4,0 0.7,0 0.4,0.1 0.8,0.1 1.3,0.1 h 1 1.4 v 0 h 1.5 c 0.4,0 0.8,0 1.2,0 v 0 h 0.2 c 0.1,0 0.3,0 0.4,0 0.4,-0.1 0.9,-0.1 1.3,-0.1 0.6,0 1.2,0 1.8,0 0.2,0 0.4,0 0.6,0 0.4,-0.1 0.8,-0.1 1.3,-0.1 0.5,0 1,0 1.5,-0.1 0.2,0 0.3,0 0.5,0 0.4,0 0.7,0 1.1,-0.1 0.1,0 0.3,0 0.4,0 h 0.1 c 0.7,0 1.4,-0.1 2.1,-0.2 0.9,-0.1 1.8,-0.3 2.7,-0.4 1.3,-0.2 2.6,-0.5 4,-0.8 0.8,-0.2 1.7,-0.5 2.5,-0.7 1.5,-0.4 3,-0.9 4.5,-1.5 1.2,-0.4 2.5,-0.9 3.7,-1.4 1.6,-0.6 3.2,-1.3 4.7,-2.1 1.8,-0.8 3.5,-1.8 5.2,-2.8 1.7,-1 3.3,-2.1 4.9,-3.3 0.7,-0.5 1.4,-1.1 2,-1.6 0.7,-0.6 1.3,-1.2 2,-1.7 1.4,-1.4 2.9,-2.8 4.2,-4.3 0.5,-0.6 1.1,-1.2 1.6,-1.8 0.1,-0.1 0.1,-0.2 0.2,-0.3 0.5,-0.7 1.1,-1.4 1.6,-2 0.9,-1.2 1.8,-2.4 2.6,-3.6 1.2,-1.8 2.4,-3.6 3.5,-5.4 1,-1.7 2,-3.5 3,-5.3 1.4,-2.7 2.7,-5.4 4,-8.1 0,-0.1 0.1,-0.2 0.1,-0.3 0.2,-0.6 0.5,-1.1 0.7,-1.7 0.6,-1.3 1.1,-2.6 1.6,-3.9 0.6,-1.5 1.2,-3 1.8,-4.5 0.4,-0.9 0.7,-1.8 1.1,-2.7 0.5,-1.4 1.1,-2.8 1.6,-4.2 0.4,-1.1 0.8,-2.2 1.2,-3.3 0.2,-0.6 0.4,-1.1 0.6,-1.7 -0.1,-0.3 -0.3,-0.7 -0.3,-1 -0.2,-0.8 -0.2,-1.5 -0.1,-2.1 z"
   id="path8" />
	<path
   class="st4"
   d="m 337.4,102.6 c 0.7,1.2 1.5,2.4 2.3,3.5 0.5,0.6 1,1.2 1.5,1.8 0.8,1 1.7,1.9 2.7,2.8 0,0 0.1,0.1 0.1,0.1 0.8,0.6 1.7,1.2 2.6,1.8 1.1,0.7 2.3,1.3 3.5,1.8 1.3,0.5 2.7,0.9 4.1,1.2 0.8,0.2 1.7,0.2 2.5,0.3 h 0.1 c 0.5,0 1.1,0 1.6,0 0.6,0 1.2,0 1.7,-0.2 0.1,0 0.1,0 0.2,0 0.4,0 0.7,-0.1 1.1,-0.2 1.7,-0.3 3.4,-0.9 4.9,-1.9 0.9,-0.6 1.7,-1.2 2.5,-2 0.4,-0.4 0.8,-0.8 1.1,-1.3 1.2,-1.6 2.3,-3.3 3.2,-5.1 0.2,-0.3 0.3,-0.7 0.4,-1 0.7,-1.4 1.2,-2.8 1.7,-4.3 0.6,-1.7 1.1,-3.4 1.6,-5.1 0.3,-1 0.5,-2 0.7,-2.9 0.1,-0.5 0.2,-1.1 0.3,-1.6 0,-0.1 0,-0.3 0.1,-0.4 v -0.2 c 0,-0.3 0.1,-0.5 0.1,-0.8 0.1,-0.3 0.1,-0.6 0.1,-0.8 0.1,-0.6 0.2,-1.1 0.3,-1.6 0,-0.2 0.1,-0.4 0.1,-0.7 0,-0.1 0,-0.2 0,-0.3 0.1,-0.4 0.1,-0.9 0.1,-1.3 0,-0.3 0,-0.7 0.1,-1 0.1,-0.4 0.1,-0.9 0.1,-1.3 0,-0.4 0,-0.8 0.1,-1.3 0.1,-0.6 0.1,-1.3 0.1,-1.9 0,-0.3 0,-0.7 0,-1 0.1,-0.5 0.1,-0.9 0.1,-1.4 0,-0.8 0,-1.6 0,-2.4 v 0 c 0,-0.4 0,-0.8 0,-1.3 0,-1 0,-1.9 -0.1,-2.9 0,-0.2 0,-0.3 0,-0.5 0,-0.2 0,-0.3 0,-0.5 -0.2,-0.8 -0.3,-1.7 -0.5,-2.5 -0.3,-1.4 -0.9,-2.7 -1.7,-3.8 -0.7,-1 -1.5,-1.8 -2.5,-2.4 -0.7,-0.5 -1.5,-0.9 -2.3,-1.2 -1.1,-0.4 -2.3,-0.7 -3.4,-0.8 -0.1,0 -0.1,0 -0.2,0 h -0.2 c -0.6,0 -1.2,0.2 -1.8,0.2 -1.4,0.3 -2.7,1 -3.8,2 -1,0.9 -1.9,2.1 -2.4,3.3 -0.6,1.3 -0.9,2.6 -0.9,4 0,0.7 0.1,1.3 0.2,2 0.2,1.1 0.4,2.2 0.5,3.2 0,0.1 0,0.2 0,0.3 0,0.3 0.1,0.6 0.1,0.8 0,0.2 0,0.4 0.1,0.6 0,0.3 0.1,0.6 0.1,0.8 0,0.5 0,1 0.1,1.4 0,0.2 0,0.4 0,0.7 0,0.9 0,1.9 0,2.8 0,0.7 0,1.3 -0.1,2 0,0.1 0,0.2 0,0.3 -0.1,0.6 -0.1,1.3 -0.3,1.9 -0.2,1 -0.5,1.9 -0.8,2.8 -0.2,0.6 -0.5,1.1 -0.9,1.5 -1,1 -2.3,1.6 -3.7,1.6 -0.1,0 -0.2,0 -0.2,0 -0.5,0 -1.1,-0.1 -1.6,-0.3 -0.9,-0.3 -1.7,-0.8 -2.3,-1.5 -0.4,-0.5 -0.8,-1 -1,-1.7 -0.2,-0.7 -0.4,-1.4 -0.4,-2.1 0,-0.2 0,-0.4 -0.1,-0.6 -0.1,-0.3 -0.1,-0.7 -0.1,-1 0,-2.4 0,-4.7 0,-7.1 0,-0.2 0,-0.4 0,-0.6 0.1,-0.5 0.1,-0.9 0.1,-1.4 0,-0.6 0,-1.1 0,-1.7 0,-0.2 0,-0.4 0,-0.6 0.1,-0.5 0.1,-1 0.1,-1.5 0,-0.3 0,-0.6 0.1,-0.9 0.1,-0.4 0.1,-0.8 0.1,-1.2 0,-0.3 0,-0.6 0.1,-0.9 0,-0.3 0.1,-0.6 0.1,-0.9 0,-0.2 0,-0.4 0,-0.6 0.1,-0.5 0.1,-1 0.1,-1.5 0,-0.2 0,-0.3 0.1,-0.5 0.1,-0.3 0.1,-0.7 0.1,-1 0,-0.5 0,-1 0.1,-1.5 0,-0.2 0,-0.4 0,-0.6 0,-1 0,-2.1 0,-3.1 0,-0.7 0,-1.4 -0.2,-2.1 -0.2,-1.1 -0.5,-2.1 -0.9,-3.2 -0.4,-1 -0.9,-2 -1.6,-2.9 -0.4,-0.5 -0.9,-1 -1.4,-1.4 -1.2,-0.9 -2.7,-1.4 -4.2,-1.4 -0.1,0 -0.1,0 -0.2,0 -0.5,0 -0.9,0.1 -1.4,0.1 -0.6,0.1 -1.2,0.2 -1.8,0.4 -1.3,0.4 -2.5,1 -3.7,1.6 -1.3,0.7 -2.4,1.7 -3.4,2.7 -0.5,0.5 -0.9,1 -1.2,1.6 -0.4,0.8 -0.8,1.7 -1.1,2.6 -0.4,1.2 -0.8,2.5 -1.1,3.8 -0.1,0.7 -0.2,1.3 -0.3,2 -0.1,0.6 -0.2,1.1 -0.2,1.7 0,0.1 0,0.2 0,0.2 0,0.3 -0.1,0.6 -0.1,0.8 0,0.4 0,0.7 0,1.1 0,0.4 0,0.7 -0.1,1.1 -0.1,0.7 -0.1,1.5 0,2.2 0,0.3 0.1,0.6 0.1,0.9 0,0.5 0,1 0,1.5 0,0.2 0,0.4 0,0.6 0.1,0.4 0.1,0.9 0.1,1.3 0,0.1 0,0.3 0,0.4 0.1,0.6 0.2,1.3 0.3,1.9 0,0.6 0.2,1.2 0.2,1.7 0.2,1.2 0.4,2.4 0.7,3.6 0.2,1.2 0.5,2.4 0.7,3.5 0.1,0.4 0.2,0.8 0.2,1.2 0.1,0.7 0.2,1.4 0.4,2.1 0.4,1.4 0.9,2.8 1.4,4.2 0.7,1.9 1.6,3.8 2.4,5.6 1.9,2.4 2.8,4.1 3.9,5.8 z"
   id="path9" />
	<path
   class="st4"
   d="m 382,86.7 c -0.1,0.6 -0.3,1.3 -0.4,1.9 -0.1,0.6 -0.2,1.1 -0.3,1.7 -0.1,0.5 -0.2,1.1 -0.2,1.6 -0.1,0.7 -0.2,1.4 -0.2,2.2 0,0.1 0,0.2 0,0.2 -0.1,0.3 -0.1,0.7 -0.1,1 0,0.3 0,0.6 0,0.8 -0.1,0.6 -0.1,1.1 -0.1,1.7 0,0.3 0,0.6 -0.1,0.8 -0.1,0.3 -0.1,0.7 -0.1,1 0,0.7 0,1.4 -0.1,2.1 0,0.2 0,0.3 0,0.5 0,0.5 0,1 0,1.4 0,0.2 0,0.4 0,0.6 -0.1,0.5 -0.1,0.9 -0.1,1.4 0,0.6 0,1.1 0,1.7 0,0.2 0,0.4 0,0.6 -0.1,0.5 -0.1,0.9 -0.1,1.4 0,0.9 0,1.8 0,2.7 v 0 c 0,0.9 0,1.9 0,2.8 0,0.5 0,1 0.1,1.4 0,0.2 0,0.4 0,0.6 0,0.6 0,1.1 0.1,1.7 0,0.2 0,0.3 0,0.5 0,0.2 0,0.3 0,0.5 0.2,0.9 0.3,1.9 0.5,2.8 0.3,1.2 0.6,2.4 1.1,3.6 0.2,0.4 0.4,0.9 0.6,1.3 0.7,1.4 1.7,2.6 2.8,3.7 0.4,0.4 0.8,0.7 1.2,1.1 1.2,1.1 2.5,2 4,2.7 1.7,0.8 3.7,1.3 5.6,1.3 h 0.5 c 0.6,0 1.2,0 1.7,-0.1 0.8,0 1.7,-0.2 2.5,-0.4 1.5,-0.4 3,-0.9 4.4,-1.5 1.3,-0.6 2.5,-1.3 3.7,-2.1 1.4,-0.9 2.6,-1.8 3.9,-2.8 0.7,-0.5 1.4,-1 2,-1.5 1,-0.7 1.9,-1.5 2.8,-2.3 1,-0.8 1.9,-1.5 2.8,-2.4 0.1,-0.1 0.2,-0.2 0.3,-0.2 0.4,-0.3 0.8,-0.7 1.2,-1.1 1.1,-1 1.9,-2.3 2.6,-3.6 0.7,-1.3 1.1,-2.7 1.4,-4.1 0.1,-0.4 0.2,-0.9 0.2,-1.3 0,-0.9 0,-1.9 0,-2.8 0,-0.2 0,-0.4 -0.1,-0.6 -0.1,-0.6 -0.3,-1.1 -0.5,-1.7 -0.2,-0.6 -0.5,-1.1 -0.9,-1.6 -0.6,-0.7 -1.3,-1.3 -2.1,-1.7 -1.2,-0.6 -2.4,-1.1 -3.7,-1.3 -0.7,-0.1 -1.3,-0.2 -2,-0.2 -0.1,0 -0.1,0 -0.2,0 -0.5,0 -1.1,0.1 -1.6,0.1 -1.2,0.2 -2.3,0.6 -3.3,1.3 -0.9,0.7 -1.8,1.4 -2.5,2.2 -0.2,0.2 -0.3,0.4 -0.5,0.6 -0.6,0.6 -1.2,1.2 -1.7,1.9 -0.6,0.7 -1.2,1.3 -1.8,2 0,0 -0.1,0.1 -0.1,0.1 -0.7,0.9 -1.5,1.7 -2.4,2.5 -0.1,0.1 -0.2,0.2 -0.4,0.3 -0.7,0.5 -1.5,0.7 -2.4,0.8 -0.2,0 -0.4,0 -0.6,0 -0.2,0 -0.4,0 -0.6,0 -0.8,-0.1 -1.7,-0.4 -2.3,-0.9 -0.1,-0.1 -0.2,-0.2 -0.3,-0.4 -0.2,-0.4 -0.4,-0.9 -0.5,-1.4 -0.2,-0.8 -0.1,-1.7 0.2,-2.5 0.3,-1 1,-1.9 1.9,-2.5 0.4,-0.3 0.9,-0.6 1.3,-0.9 1.3,-0.9 2.6,-1.7 3.8,-2.6 0.6,-0.5 1.1,-1 1.6,-1.5 0.5,-0.5 0.8,-1.1 0.8,-1.8 0.1,-0.7 0,-1.4 -0.2,-2.1 -0.3,-1 -1,-1.9 -1.9,-2.3 -0.6,-0.3 -1.2,-0.4 -1.9,-0.5 H 401 c -0.6,0 -1.3,0 -1.9,0 -0.1,0 -0.3,0 -0.4,0 -0.6,0.1 -1.1,0.2 -1.7,0.1 -0.4,0 -0.9,0 -1.3,0 -0.5,0 -0.9,-0.2 -1.3,-0.5 -0.6,-0.5 -1.1,-1.3 -1.2,-2.1 -0.1,-0.4 -0.1,-0.8 0,-1.2 0.2,-0.8 0.6,-1.5 1.3,-2 0.7,-0.5 1.5,-0.9 2.3,-1.2 1.3,-0.4 2.7,-0.7 4.1,-0.8 0.8,-0.1 1.5,-0.1 2.3,-0.2 0.7,-0.1 1.3,-0.1 2,-0.2 0.5,-0.1 1.1,-0.2 1.6,-0.3 1.1,-0.3 2.3,-0.7 3.3,-1.1 0.8,-0.4 1.7,-0.8 2.4,-1.3 0.9,-0.6 1.8,-1.3 2.5,-2.1 0.4,-0.4 0.7,-0.8 1.1,-1.3 0.3,-0.4 0.5,-0.8 0.7,-1.2 0.3,-0.7 0.6,-1.5 0.7,-2.2 0.1,-0.5 0.1,-0.9 0.2,-1.4 0.1,-0.4 0.1,-0.7 0.1,-1.1 0,-0.7 0,-1.5 -0.1,-2.2 -0.2,-1.3 -0.6,-2.6 -1.3,-3.8 -0.4,-0.6 -0.8,-1.1 -1.3,-1.5 -0.5,-0.5 -1,-0.8 -1.6,-1.1 -1.3,-0.7 -2.8,-1.1 -4.3,-1.2 -0.1,0 -0.3,0 -0.4,-0.1 C 408.5,65 408.2,65 407.9,65 h -0.8 c -0.2,0 -0.4,0 -0.7,0 h -0.2 c -0.1,0 -0.3,0 -0.4,0 -0.4,0.1 -0.8,0.1 -1.3,0.1 -0.4,0 -0.8,0 -1.3,0.1 -0.1,0 -0.3,0 -0.4,0 -0.6,0.1 -1.1,0.2 -1.7,0.3 -1.1,0.2 -2.1,0.5 -3.2,0.9 -1.2,0.4 -2.3,1 -3.3,1.6 -1.5,0.9 -2.9,2 -4.1,3.2 -0.7,0.7 -1.4,1.4 -2.1,2.1 -0.4,0.4 -0.8,0.9 -1.2,1.4 -0.9,1.2 -1.8,2.4 -2.5,3.7 -0.7,1.3 -1.3,2.7 -1.8,4.1 -0.2,1.4 -0.6,2.8 -0.9,4.2 z"
   id="path10" />
	<path
   class="st4"
   d="m 324.5,126.2 c 1.2,-0.8 2.3,-1.8 3.2,-2.8 0.2,-0.2 0.3,-0.3 0.4,-0.5 0.9,-1.2 1.7,-2.4 2.3,-3.7 0.7,-1.5 1.3,-3 1.7,-4.7 0.2,-0.8 0.3,-1.7 0.3,-2.5 0,-0.2 0,-0.5 0,-0.7 0,-1.1 -0.2,-2.2 -0.5,-3.2 -0.4,-1.3 -1.1,-2.4 -2.1,-3.3 -0.3,-0.3 -0.5,-0.5 -0.8,-0.8 -0.2,-0.2 -0.3,-0.3 -0.5,-0.4 -1.2,-0.9 -2.7,-1.3 -4.2,-1.4 -0.1,0 -0.3,0 -0.4,0 -1,0 -2,0.1 -3,0.4 -1.3,0.3 -2.6,0.8 -3.9,1.4 -0.6,0.3 -1.1,0.6 -1.7,0.8 -0.1,0.1 -0.3,0.1 -0.4,0.2 0,0 0,0 -0.1,0 -0.1,0 -0.2,-0.1 -0.2,-0.2 0,0 0,0 0,0 0,-0.4 0.1,-0.8 0.1,-1.3 0,-0.2 0,-0.4 0,-0.7 0.1,-0.4 0.1,-0.9 0.1,-1.3 0,-0.2 0,-0.4 0,-0.6 0.1,-0.6 0.2,-1.1 0.1,-1.7 0,-0.2 0,-0.3 0,-0.5 0.1,-0.4 0.1,-0.8 0.1,-1.2 0,-0.3 0,-0.7 0.1,-1 0.1,-0.4 0.1,-0.8 0.1,-1.2 0,-0.3 0,-0.6 0.1,-0.8 0.1,-0.4 0.1,-0.8 0.1,-1.3 0,-0.3 0,-0.6 0.1,-0.9 0.1,-0.4 0.1,-0.9 0.1,-1.3 0,-0.3 0,-0.6 0.1,-0.8 0.1,-0.4 0.1,-0.9 0.1,-1.3 0,-0.3 0,-0.6 0.1,-0.8 0.1,-0.5 0.1,-0.9 0.1,-1.4 0,-0.3 0,-0.6 0.1,-0.8 0.1,-0.4 0.1,-0.8 0.1,-1.2 0,-0.4 0,-0.7 0.1,-1.1 0.1,-0.5 0.1,-1 0.1,-1.5 0,-0.5 0,-1 0.1,-1.4 0,-0.2 0,-0.3 0,-0.5 0,-1 0,-2 0.2,-2.9 0.1,-1.1 0,-2.2 -0.1,-3.4 0,-0.1 0,-0.3 0,-0.4 0,-0.6 -0.1,-1.2 -0.1,-1.8 -0.1,-0.7 -0.2,-1.4 -0.4,-2.1 -0.3,-1.5 -0.9,-3 -1.7,-4.4 -0.6,-1.1 -1.4,-2 -2.4,-2.8 -0.9,-0.8 -2,-1.4 -3.1,-1.8 -1.5,-0.6 -3.1,-0.9 -4.7,-0.9 h -1.5 c -1,0 -2,0.2 -3,0.5 -1.8,0.5 -3.5,1.4 -4.9,2.5 -0.5,0.4 -1,0.9 -1.5,1.3 -0.1,0.1 -0.3,0.3 -0.4,0.4 -0.1,0.1 -0.3,0.3 -0.4,0.5 -0.9,1 -1.5,2.1 -1.9,3.3 -0.2,0.7 -0.4,1.5 -0.6,2.2 -0.1,0.3 -0.1,0.6 -0.2,0.9 -0.1,0.8 -0.2,1.6 -0.2,2.3 0,0.1 0,0.2 0,0.2 -0.1,0.4 -0.1,0.7 -0.1,1.1 0,1.8 0,3.6 0,5.4 0,0.2 0,0.4 0,0.6 0.1,0.7 0.1,1.3 0.1,2 0,0.3 0,0.6 0.1,0.8 0.1,0.4 0.1,0.8 0.1,1.3 0,0.3 0,0.6 0,0.8 0.1,0.4 0.1,0.9 0.1,1.3 0,0.1 0,0.3 0,0.4 0.1,0.4 0.1,0.8 0.1,1.2 0,0.2 0,0.4 0.1,0.6 0.1,0.3 0.1,0.6 0.1,0.9 0,0.2 0,0.4 0.1,0.6 0.1,0.3 0.1,0.7 0.1,1 0,0.2 0,0.3 0.1,0.5 0.1,0.3 0.1,0.7 0.1,1 0,0.2 0,0.3 0.1,0.5 0.1,0.4 0.1,0.7 0.1,1.1 0,0.2 0,0.3 0,0.5 0.1,0.5 0.1,1.1 0.1,1.6 0,0.3 0,0.6 0,0.9 0.1,0.6 0.1,1.1 0.1,1.7 0,0.3 0,0.6 0.1,0.8 0.1,0.3 0.1,0.7 0.1,1 0,0.6 0,1.1 0.1,1.7 0,0.1 0,0.3 0,0.4 0,0.6 0,1.1 0.1,1.7 0,0.8 0.1,1.6 0.2,2.3 0,0.6 0.1,1.1 0.2,1.7 0,0.2 0,0.3 0,0.5 0,0.4 0,0.8 0.1,1.3 0,0.2 0,0.3 0,0.5 0,0.7 0.2,1.4 0.2,2.2 0,0.3 0.1,0.5 0.1,0.7 0.1,0.6 0.2,1.3 0.3,1.9 0.3,1.3 0.7,2.5 1.2,3.7 0.2,0.4 0.4,0.9 0.6,1.3 0.4,0.7 0.9,1.5 1.3,2.1 0.5,0.6 1,1.1 1.5,1.7 0.1,0.1 0.2,0.2 0.3,0.3 0.2,0.1 0.3,0.2 0.5,0.4 0.4,0.4 0.8,0.7 1.3,1 1,0.7 2,1.3 3.1,1.7 0.9,0.4 1.9,0.7 2.9,1 1.3,0.4 2.6,0.6 4,0.7 0.1,0 0.2,0 0.3,0 0.4,0.1 0.8,0.1 1.2,0.1 0.2,0 0.4,0 0.6,0 h 1 v 0 c 0.3,0 0.6,0 0.8,0 0.2,0 0.3,0 0.5,0 h 0.2 c 0.3,0 0.7,0 1,-0.1 0.3,0 0.7,-0.1 1,-0.2 1.6,-0.4 3.2,-0.9 4.7,-1.7 1.6,-0.5 2.8,-1.2 4,-2.1 z"
   id="path11" />
	<path
   class="st4"
   d="m 256.9,133.9 c 0.4,-0.1 0.8,-0.1 1.2,-0.1 0.2,0 0.4,0 0.6,0 0.9,-0.2 1.9,-0.3 2.8,-0.5 1.5,-0.3 2.9,-0.7 4.3,-1.1 1.9,-0.6 3.8,-1.4 5.6,-2.3 1.1,-0.6 2.3,-1.1 3.4,-1.8 1.4,-0.7 2.7,-1.6 3.9,-2.5 1,-0.7 1.9,-1.5 2.8,-2.4 0.4,-0.4 0.8,-0.8 1.1,-1.3 0.7,-0.9 1.4,-1.8 2,-2.8 0.8,-1.4 1.4,-3 1.8,-4.6 0.4,-1.4 0.6,-2.9 0.7,-4.4 0,-0.1 0,-0.2 0,-0.3 0.1,-0.4 0.1,-0.8 0.1,-1.2 0,-0.9 0,-1.7 0,-2.6 0,-0.2 0,-0.5 0,-0.7 -0.1,-0.7 -0.1,-1.3 -0.3,-2 -0.2,-1 -0.4,-1.9 -0.6,-2.9 -0.6,-2.1 -1.5,-4 -2.6,-5.8 -0.9,-1.4 -1.9,-2.8 -3.1,-4 -0.5,-0.5 -1,-1 -1.6,-1.5 -0.8,-0.8 -1.7,-1.5 -2.6,-2.2 -1.4,-1.1 -2.9,-2 -4.5,-2.7 -0.1,0 -0.2,-0.1 -0.2,-0.1 -1.6,-0.8 -3.3,-1.3 -5,-1.7 -0.2,0 -0.5,-0.1 -0.7,-0.2 -0.1,0 -0.2,-0.2 -0.2,-0.3 0,-0.1 0,-0.2 0.1,-0.3 0.2,-0.8 0.4,-1.6 0.5,-2.4 0.3,-1.3 0.5,-2.7 0.6,-4 0,-0.1 0,-0.2 0.1,-0.3 0,-0.3 0.1,-0.6 0.1,-0.8 0,-0.5 0,-1 0.1,-1.4 0,-0.2 0,-0.3 0,-0.5 0,-1.5 0,-3.1 0,-4.6 0,-0.2 0,-0.4 -0.1,-0.7 0,-0.3 -0.1,-0.6 -0.1,-0.8 0,-0.2 0,-0.5 0,-0.7 -0.2,-1 -0.3,-2 -0.6,-3 -0.6,-2.1 -1.5,-4.1 -2.9,-5.8 -0.9,-1 -1.8,-2 -3,-2.7 -1.5,-1 -3.1,-1.9 -4.9,-2.5 -1.8,-0.6 -3.6,-1.1 -5.4,-1.5 -0.7,-0.1 -1.4,-0.3 -2.2,-0.4 -0.6,-0.1 -1.3,-0.2 -1.9,-0.2 0,0 -0.1,0 -0.2,0 v 0 c -0.1,0 -0.2,0 -0.2,0 -0.4,-0.1 -0.7,-0.1 -1.1,-0.1 -0.3,0 -0.6,0 -0.9,0 h -0.3 c -0.1,0 -0.2,0 -0.3,0 -0.3,0 -0.5,0 -0.8,0 -0.6,0 -1.2,0 -1.8,0.1 -0.2,0 -0.3,0 -0.5,0 -0.1,0 -0.3,0 -0.4,0 -1,0.2 -2,0.3 -3,0.6 -0.9,0.2 -1.7,0.5 -2.6,0.9 -1.6,0.7 -3.1,1.5 -4.5,2.5 -0.9,0.7 -1.8,1.5 -2.7,2.3 -0.5,0.5 -0.9,0.9 -1.3,1.4 -2.2,2.6 -3.7,5.7 -4.5,9 -0.2,0.6 -0.3,1.2 -0.3,1.8 0,0.2 0,0.3 -0.1,0.5 0,0.2 -0.1,0.3 -0.1,0.5 0,0.8 -0.1,1.6 -0.2,2.4 0,0.5 -0.1,1.1 0,1.6 0,0.3 0,0.5 0,0.8 -0.1,0.5 -0.1,1.1 -0.1,1.6 0,0.6 0,1.2 0,1.8 0,0.2 0,0.5 -0.1,0.7 0,0.3 -0.1,0.6 -0.1,0.9 0,1 0,2.1 0,3.1 0,0.3 0,0.5 0,0.8 -0.1,0.4 -0.1,0.8 -0.1,1.3 0,2 0,4 0,6 0,0.3 0,0.6 0,0.9 0,0.3 -0.1,0.7 -0.1,1 0,1.3 0,2.7 0,4 0,1.3 0,2.7 0,4 0,0.3 0,0.5 0,0.8 0.1,0.4 0.1,0.9 0.1,1.3 0,2.5 0,5.1 0,7.6 0,0.3 0,0.6 0,0.8 0.1,0.5 0.1,0.9 0.1,1.4 0,0.4 0,0.8 0,1.2 0,1.3 0,2.5 0.2,3.8 0,0.6 0.1,1.2 0.2,1.8 0.1,0.5 0.1,1.1 0.2,1.6 0.3,1.6 0.9,3.1 1.6,4.6 0.4,0.7 0.9,1.4 1.5,2 0.5,0.5 1,0.9 1.6,1.2 1.4,0.9 3,1.6 4.5,2.2 0.9,0.3 1.8,0.6 2.7,0.9 0.6,0.2 1.2,0.4 1.9,0.5 1.5,0.4 3.1,0.7 4.6,1 0.4,0.1 0.8,0.1 1.2,0.2 0.4,0.1 0.9,0.1 1.3,0.2 0.7,0.1 1.5,0.3 2.2,0.3 0.1,0 0.2,0 0.3,0 0.3,0.1 0.6,0.1 0.9,0.1 0.2,0 0.3,0 0.5,0 0.4,0.1 0.9,0.1 1.3,0.1 0.2,0 0.3,0 0.5,0 0.5,0.1 1,0.1 1.5,0.1 0.4,0 0.8,0 1.3,0.1 0.1,0 0.3,0 0.4,0 h 0.1 c 1.2,0 2.3,0 3.5,0 0.5,0 1.1,0 1.6,0 h 0.1 c 0.7,0.4 0.9,0.4 1.1,0.4 z M 241.5,81.7 c -0.5,-0.8 -0.8,-1.7 -0.9,-2.6 -0.1,-0.5 -0.2,-0.9 -0.2,-1.4 -0.1,-0.9 -0.2,-1.8 -0.1,-2.7 0,-0.4 0,-0.8 0.1,-1.3 0,-0.2 0,-0.3 0,-0.5 0.1,-0.9 0.3,-1.7 0.7,-2.5 0.3,-0.6 0.8,-1.1 1.3,-1.5 0.6,-0.5 1.2,-0.9 2,-1.1 0.6,-0.2 1.3,-0.3 1.9,-0.3 1.3,0 2.6,0.4 3.6,1.2 0.9,0.7 1.4,1.8 1.5,2.9 0,0.3 0,0.5 0,0.8 0,0.9 -0.1,1.8 -0.4,2.7 -0.2,0.6 -0.4,1.1 -0.6,1.6 -0.4,0.8 -0.8,1.7 -1.4,2.4 -0.3,0.5 -0.7,0.9 -1,1.3 -0.7,0.8 -1.6,1.4 -2.5,1.8 -0.5,0.2 -1,0.3 -1.5,0.3 -0.1,0 -0.2,0 -0.3,0 -0.6,-0.1 -1.1,-0.3 -1.6,-0.6 -0.3,-0.1 -0.5,-0.3 -0.6,-0.5 z m 14.2,30.5 c -1,0.4 -2.1,0.6 -3.2,0.8 -0.2,0 -0.3,0 -0.5,0 -0.3,0 -0.6,0 -0.9,0.1 -0.2,0 -0.4,0.1 -0.7,0.1 -0.3,0 -0.7,0 -1,0 H 248 v 0 c 0,0 -0.1,0 -0.1,0 -0.4,0 -0.8,-0.1 -1.3,-0.1 -0.4,0 -0.8,-0.1 -1.2,-0.1 -0.4,-0.1 -0.9,-0.1 -1.3,-0.2 -0.5,-0.1 -0.9,-0.3 -1.3,-0.5 -0.3,-0.1 -0.5,-0.4 -0.6,-0.7 -0.1,-0.2 -0.1,-0.5 -0.1,-0.7 0,-0.6 0,-1.1 0,-1.7 v 0 c 0,-0.4 0,-0.8 0,-1.3 0,-0.3 0,-0.6 0.1,-0.9 0,-0.3 0,-0.6 0,-0.8 0,-0.9 0,-1.7 0,-2.6 0,-0.5 0.1,-1 0.4,-1.4 0.3,-0.5 0.6,-0.9 1,-1.2 0.5,-0.4 1.1,-0.8 1.7,-1 1.2,-0.5 2.5,-0.8 3.7,-1 0.5,-0.1 1,-0.1 1.5,-0.2 0.6,-0.1 1.3,-0.1 1.9,-0.1 h 0.4 c 0.3,0 0.6,0 0.9,0.1 0.1,0 0.3,0.1 0.4,0.1 1.5,0.1 3,0.5 4.3,1.2 0.4,0.2 0.8,0.5 1.2,0.8 0.6,0.6 1.1,1.3 1.4,2.1 0.2,0.5 0.3,1 0.3,1.6 0,0.5 0,1.1 -0.1,1.6 -0.1,0.7 -0.4,1.3 -0.6,1.9 -0.5,1.1 -1.3,2.1 -2.3,2.9 -0.2,0.2 -0.5,0.4 -0.8,0.5 -0.5,0.1 -1.1,0.4 -1.8,0.7 z"
   id="path12" />
	<polygon
   class="st4"
   points="256.3,134.7 256.3,134.8 256.3,135 256.3,135.3 256.3,134.9 256.3,133.9 "
   id="polygon12" />
	<path
   class="st0"
   d="m 524.2,36.2 c 0.1,-0.4 0.3,-0.9 0.4,-1.3 -0.5,0.4 -0.9,0.7 -1.5,1 -0.5,0.3 -1,0.7 -1.7,1.1 l 0.3,-0.1 c 0.8,-0.2 1.7,-0.5 2.5,-0.7 z"
   id="path13" />
	<path
   class="st0"
   d="m 471.6,86.2 c -0.2,-0.1 -0.4,-0.2 -0.6,-0.3 -0.4,0.6 -0.7,1.2 -0.8,1.9 0.3,-0.7 0.8,-1.2 1.4,-1.6 z"
   id="path14" />
	<path
   class="st5"
   d="m 583.1,76.6 v 0 c 2.5,-2.1 4.3,-3.6 4.6,-4 0.2,-0.2 0.4,-0.3 0.6,-0.4 1.2,-0.3 1.9,-0.7 2.2,-1.2 l 0.4,0.1 -0.4,-0.2 c 0.1,-0.2 0.4,-0.7 1.2,-0.3 1.1,0.4 2.4,0.3 3.5,-0.2 0.6,-0.3 1.1,-0.9 1.3,-1.6 0.2,-0.6 0.1,-1.2 -0.2,-1.8 -0.4,-0.5 -1,-0.9 -1.6,-1 -0.3,0 -0.6,-0.2 -0.8,-0.5 -0.1,-0.2 0,-0.5 0.2,-0.7 0.3,-0.3 1.9,-2 1.1,-3.7 -0.3,-0.7 -1,-1.3 -1.8,-1.5 -0.8,-0.2 -1.6,0 -2.3,0.4 -0.2,0.2 -1,0.6 -1.4,0.2 -0.2,-0.2 -0.1,-0.6 0.1,-0.7 0,0 0,0 0,0 0.6,-0.6 0.9,-1.5 0.7,-2.4 -0.1,-0.8 -0.6,-1.4 -1.4,-1.7 -0.7,-0.2 -1.4,-0.1 -2,0.3 -0.8,0.5 -1.4,1.4 -1.6,2.4 0,0.2 -0.2,0.8 -0.6,0.9 -0.3,0 -0.6,-0.1 -0.7,-0.3 -0.5,-0.6 -1.2,-0.9 -2,-1 -0.9,0 -1.7,0.3 -2.3,0.9 -0.4,0.4 -0.6,0.9 -0.6,1.4 0.1,1 0.6,1.9 1.3,2.7 0.2,0.2 0.3,0.5 0.3,0.7 0,0.3 -0.2,0.5 -0.4,0.6 -0.5,0.3 -2.4,1.9 -5,4 v 0 c 1.9,0.4 5.5,1.9 7.6,8.6 z m 4.8,-13.3 c 0.2,0 0.4,0.1 0.5,0.3 0,0 0.6,3.3 -3.2,4.3 0,0 -0.1,0 -0.1,0 -0.2,0 -0.4,-0.2 -0.4,-0.4 0,-0.2 0.1,-0.3 0.3,-0.4 3,-0.8 2.6,-3.3 2.6,-3.4 -0.1,-0.2 0.1,-0.4 0.3,-0.4 z"
   id="path15" />
	<path
   class="st6"
   d="m 567.9,89.1 c 4.6,-3.8 10.9,-9 15.1,-12.5 -2.1,-6.7 -5.7,-8.2 -7.4,-8.6 -1.4,1.2 -3.1,2.5 -4.8,4 -0.6,4.4 -3,6.5 -5.2,7.6 0.9,3.3 1.6,6.5 2.3,9.5 z"
   id="path16" />
	<path
   class="st7"
   d="m 585,67.1 c -0.2,0.1 -0.3,0.3 -0.3,0.5 0,0.2 0.2,0.3 0.4,0.3 0,0 0.1,0 0.1,0 3.7,-1 3.2,-4.2 3.2,-4.3 0,-0.2 -0.2,-0.4 -0.5,-0.3 -0.2,0 -0.4,0.2 -0.3,0.5 v 0 c 0,0.1 0.4,2.6 -2.6,3.3 z"
   id="path17" />
	<path
   class="st7"
   d="m 575.7,68 c 2.6,-2.1 4.5,-3.7 5,-4 0.2,-0.1 0.4,-0.4 0.4,-0.6 0,-0.3 -0.1,-0.5 -0.3,-0.7 -0.7,-0.7 -1.2,-1.6 -1.3,-2.7 0,-0.5 0.2,-1 0.6,-1.4 0.6,-0.6 1.4,-1 2.3,-0.9 0.8,0 1.5,0.4 2,1 0.1,0.3 0.4,0.4 0.7,0.3 0.5,-0.1 0.6,-0.7 0.6,-0.9 0.2,-1 0.8,-1.8 1.6,-2.4 0.6,-0.4 1.3,-0.5 2,-0.3 0.7,0.3 1.3,0.9 1.4,1.7 0.2,0.9 0,1.8 -0.7,2.4 -0.2,0.2 -0.3,0.5 -0.2,0.7 0,0 0,0 0,0 0.4,0.4 1.1,0 1.4,-0.2 0.7,-0.4 1.5,-0.6 2.3,-0.4 0.8,0.2 1.5,0.7 1.8,1.5 0.8,1.7 -0.8,3.4 -1.1,3.7 -0.2,0.2 -0.3,0.4 -0.2,0.7 0.1,0.3 0.4,0.5 0.8,0.5 0.6,0.1 1.2,0.4 1.6,1 0.3,0.5 0.4,1.2 0.2,1.8 -0.2,0.7 -0.6,1.3 -1.3,1.6 -1.1,0.5 -2.3,0.6 -3.5,0.2 -0.8,-0.4 -1.1,0.1 -1.2,0.3 l 0.4,0.2 -0.4,-0.1 c -0.3,0.5 -1.1,0.9 -2.2,1.2 -0.2,0.1 -0.5,0.2 -0.6,0.4 -0.3,0.3 -2.1,1.9 -4.6,3.9 0,0.3 0.1,0.7 0.1,1.1 2.8,-2.3 4.8,-4 5.2,-4.4 0.1,-0.1 0.1,-0.1 0.2,-0.2 2.1,-0.5 2.6,-1.3 2.8,-1.6 v -0.1 c 0,0 0.1,0 0.1,0 1.4,0.5 2.9,0.4 4.2,-0.3 0.9,-0.4 1.5,-1.2 1.7,-2.2 0.3,-0.8 0.1,-1.8 -0.4,-2.5 -0.5,-0.7 -1.2,-1.1 -2,-1.3 1.1,-1.2 1.8,-2.9 1,-4.4 -0.4,-1 -1.3,-1.7 -2.4,-1.9 -0.8,-0.2 -1.6,-0.1 -2.3,0.2 0.3,-0.7 0.3,-1.4 0.2,-2.1 -0.2,-1.1 -0.9,-2 -2,-2.4 -0.9,-0.3 -1.9,-0.2 -2.7,0.3 -1,0.6 -1.8,1.7 -2,2.9 -0.6,-0.6 -1.5,-1 -2.4,-1.1 -1.1,-0.1 -2.2,0.4 -2.9,1.2 -0.5,0.5 -0.8,1.3 -0.8,2 0.1,1.2 0.7,2.4 1.5,3.3 -0.6,0.4 -2.8,2.2 -5.6,4.5 0.2,0.4 0.6,0.5 1,0.5 z"
   id="path18" />
	<path
   class="st8"
   d="m 583.1,76.6 v 0 c -4.3,3.6 -10.6,8.7 -15.1,12.5 0.1,0.3 0.1,0.6 0.2,1 4.5,-3.7 10.7,-8.8 15,-12.4 0,-0.4 -0.1,-0.7 -0.1,-1.1 z"
   id="path19" />
	<path
   class="st8"
   d="m 570.9,72 c 0,0 0,0 0,0 1.7,-1.4 3.3,-2.7 4.8,-3.9 v 0 c -0.4,-0.1 -0.8,-0.1 -1.2,-0.2 -1.1,0.9 -2.3,1.9 -3.5,2.9 0,0.4 -0.1,0.8 -0.1,1.2 z"
   id="path20" />
	<path
   class="st5"
   d="m 518.4,159.5 -0.7,2.8 c 2.8,0.3 5.4,1.3 7.7,2.9 0.2,0.1 0.3,0.4 0.1,0.6 -0.1,0.2 -0.4,0.3 -0.6,0.1 -4.3,-3 -8,-2.8 -8.1,-2.8 0,0 0,0 0,0 -1.3,0.1 -6.1,0.8 -6.6,7.2 0.8,-0.5 1.7,-0.8 2.6,-0.8 0,-0.2 0,-0.4 0,-0.6 0.2,-2.4 2.8,-4.5 2.9,-4.6 0.2,-0.1 0.4,-0.1 0.5,0.1 0.1,0.2 0.1,0.4 -0.1,0.5 0,0 -2.4,2 -2.6,4.1 0,0.2 0,0.4 0,0.5 1.9,0.1 3.8,0.5 5.6,1.1 0,-0.1 0,-0.3 0,-0.4 0.2,-2.4 3,-4.2 3.1,-4.2 0.2,-0.1 0.4,0 0.5,0.1 0.1,0.2 0,0.4 -0.1,0.5 0,0 -2.5,1.6 -2.7,3.7 0,0.2 0,0.4 0,0.6 0.3,0.1 0.5,0.2 0.8,0.3 6,2.6 7.4,5.9 7.8,7.2 0.4,-0.2 0.8,-0.5 1,-0.9 0.3,-0.5 1.8,-6.5 3.7,-14.4 -3.9,-8.4 -12.7,-5.8 -14.8,-3.6 z"
   id="path21" />
	<path
   class="st9"
   d="m 520.8,171.2 c -0.3,-0.1 -0.5,-0.2 -0.8,-0.3 0.1,1 0.5,1.9 1.2,2.6 0.2,0.2 0.2,0.4 0,0.6 -0.2,0.2 -0.4,0.2 -0.6,0 -0.9,-0.9 -1.4,-2.2 -1.5,-3.4 -1.8,-0.6 -3.7,-1 -5.6,-1.1 0.1,1 0.6,1.9 1.4,2.5 0.2,0.1 0.2,0.4 0.1,0.5 -0.1,0.1 -0.2,0.2 -0.3,0.2 -0.1,0 -0.2,0 -0.2,-0.1 -1,-0.7 -1.6,-1.9 -1.7,-3.1 -0.9,0 -1.8,0.3 -2.6,0.8 0,0.3 0,0.5 0,0.8 -0.1,3 4.8,5.9 9.7,7.2 3.8,1 7.1,1 8.8,0.1 -0.4,-1.4 -1.9,-4.6 -7.9,-7.3 z"
   id="path22" />
	<path
   class="st6"
   d="m 522.3,143.8 v 0 l -3.9,15.7 v 0 c 2.1,-2.2 10.8,-4.7 14.9,3.6 v 0 c 1.5,-6.3 3.3,-13.8 4.9,-20.7 v 0 c -5.2,1 -10.6,1.4 -15.9,1.4 z"
   id="path23" />
	<path
   class="st10"
   d="m 526.7,139.3 c -1.1,0 -2.2,-0.1 -3.2,-0.2 l -1.1,4.6 c 5.3,0.1 10.6,-0.4 15.8,-1.4 0.3,-1.4 0.7,-2.9 1,-4.2 -0.8,0.1 -1.6,0.3 -2.4,0.4 -3.2,0.4 -6,0.7 -8.4,0.8 -0.6,0 -1.2,0 -1.7,0 z"
   id="path24" />
	<path
   class="st7"
   d="m 514.5,172.7 c 0.1,0 0.1,0.1 0.2,0.1 0.2,0 0.4,-0.2 0.4,-0.4 0,-0.1 -0.1,-0.3 -0.2,-0.3 -0.8,-0.6 -1.3,-1.5 -1.4,-2.5 0,-0.2 0,-0.4 0,-0.5 0.2,-2.1 2.6,-4 2.6,-4.1 0.2,-0.1 0.2,-0.4 0.1,-0.5 -0.1,-0.2 -0.4,-0.2 -0.5,-0.1 -0.1,0.1 -2.7,2.2 -2.9,4.6 0,0.2 0,0.4 0,0.6 0.1,1.2 0.7,2.3 1.7,3.1 z"
   id="path25" />
	<path
   class="st7"
   d="m 520.7,174.1 c 0.2,0.2 0.4,0.1 0.6,0 0.2,-0.2 0.1,-0.4 0,-0.6 -0.7,-0.7 -1.1,-1.6 -1.2,-2.6 0,-0.2 0,-0.4 0,-0.6 0.2,-2 2.7,-3.6 2.7,-3.7 0.2,-0.1 0.2,-0.4 0.1,-0.5 -0.1,-0.2 -0.3,-0.2 -0.5,-0.1 -0.1,0.1 -2.9,1.8 -3.1,4.2 0,0.1 0,0.3 0,0.4 0,1.3 0.5,2.5 1.4,3.5 z"
   id="path26" />
	<path
   class="st7"
   d="m 533.3,163.1 v 0 c -1.9,7.9 -3.4,13.9 -3.7,14.4 -0.2,0.4 -0.6,0.7 -1,0.9 -1.7,0.9 -5,1 -8.8,-0.1 -4.9,-1.3 -9.8,-4.2 -9.7,-7.2 0,-0.3 0,-0.5 0,-0.8 0.5,-6.3 5.3,-7.1 6.6,-7.2 0,0 0,0 0,0 0,0 3.7,-0.2 8.1,2.8 0.2,0.1 0.5,0.1 0.6,-0.1 0.1,-0.2 0.1,-0.5 -0.1,-0.6 -2.3,-1.6 -4.9,-2.6 -7.7,-2.9 l 0.7,-2.8 v 0 c -0.4,0.2 -0.7,0.4 -1.1,0.6 l -0.5,2.2 c -1.2,0.1 -2.4,0.4 -3.5,1 -1.8,1 -3.9,3.2 -4,7.8 -0.1,3.7 5.1,6.7 10.4,8.1 1.8,0.5 3.7,0.8 5.5,0.8 2.4,0 4.4,-0.6 5.3,-2.1 0.3,-0.5 1.8,-6.4 3.5,-13.7 -0.2,-0.4 -0.4,-0.8 -0.6,-1.1 z"
   id="path27" />
	<path
   class="st8"
   d="m 518.4,159.4 3.9,-15.7 c -0.4,0 -0.7,0 -0.9,0 l -4.1,16.3 c 0.4,-0.1 0.7,-0.4 1.1,-0.6 z"
   id="path28" />
	<path
   class="st8"
   d="m 538.2,142.4 c -1.6,6.9 -3.4,14.4 -4.9,20.7 0.2,0.4 0.4,0.8 0.6,1.2 1.8,-7.4 3.8,-16.2 5.2,-22 -0.3,0 -0.6,0 -0.9,0.1 z"
   id="path29" />
	<path
   class="st11"
   d="m 522.3,143.8 v 0 l 1.1,-4.6 c -0.3,0 -0.6,-0.1 -0.9,-0.1 l -1.2,4.7 c 0.3,0 0.6,0 1,0 z"
   id="path30" />
	<path
   class="st11"
   d="m 539.1,138.1 c -0.3,1.4 -0.6,2.8 -1,4.2 v 0 c 0.3,-0.1 0.6,-0.1 1,-0.2 0.4,-1.7 0.7,-3.1 1,-4.2 -0.3,0.1 -0.6,0.2 -1,0.2 z"
   id="path31" />
	<path
   class="st5"
   d="m 573.4,153.6 c 5.3,6 9.3,10.6 9.8,10.9 0.4,0.2 0.8,0.4 1.2,0.4 0.1,-0.8 0.7,-2.9 4.5,-7.4 0.2,-0.3 0.5,-0.6 0.8,-0.9 -0.1,-0.1 -0.2,-0.3 -0.3,-0.4 -1.4,-1.6 -4,-2.4 -4,-2.4 -0.2,0 -0.3,-0.3 -0.3,-0.5 0,-0.2 0.3,-0.3 0.5,-0.3 0,0 0,0 0,0 0.1,0 2.9,0.8 4.4,2.6 0.1,0.1 0.2,0.2 0.2,0.3 1.4,-1.5 2.9,-2.8 4.5,-4 0,-0.1 0,-0.1 -0.1,-0.2 -1.3,-1.8 -4.1,-2.5 -4.2,-2.5 -0.2,0 -0.3,-0.3 -0.3,-0.5 0,-0.2 0.3,-0.3 0.5,-0.3 v 0 c 0.1,0 3.2,0.7 4.6,2.8 0,0.1 0.1,0.1 0.1,0.2 1.2,-0.7 2.2,-1.1 3.1,-0.9 -3.8,-6.2 -9.7,-3.5 -10,-3.4 -0.1,0 -0.1,0 -0.2,0 -2.4,1.4 -4.4,3.5 -5.7,6 -0.1,0.2 -0.3,0.3 -0.5,0.2 -0.2,-0.1 -0.3,-0.3 -0.2,-0.5 v 0 c 1.3,-2.5 3.3,-4.7 5.8,-6.2 l -2.4,-2.8 c -2.5,-1.1 -11.9,0.4 -11.8,9.8 z"
   id="path32" />
	<path
   class="st9"
   d="m 595.5,151.5 c 0.8,1.4 -0.5,3.7 -0.7,4 -0.1,0.2 -0.4,0.2 -0.5,0.1 -0.2,-0.1 -0.2,-0.4 -0.1,-0.5 0.4,-0.6 1.1,-2.2 0.7,-3.1 -1.6,1.2 -3.2,2.5 -4.5,4 0.7,0.9 0.8,2.2 0.1,3.2 -0.1,0.2 -0.4,0.2 -0.5,0.1 -0.2,-0.1 -0.2,-0.4 -0.1,-0.5 v 0 c 0.4,-0.6 0.4,-1.5 -0.1,-2.1 -0.3,0.3 -0.6,0.7 -0.8,0.9 -3.8,4.6 -4.4,6.6 -4.5,7.4 2.1,0.1 5.4,-1.7 8.8,-4.9 4,-3.7 6.4,-7.7 5.4,-9.3 0,-0.1 -0.1,-0.1 -0.1,-0.2 -0.9,-0.2 -2,0.2 -3.1,0.9 z"
   id="path33" />
	<path
   class="st6"
   d="m 559.4,137.4 v 0 0 c 4.6,5.4 9.7,11.3 14,16.2 -0.1,-9.5 9.3,-10.9 11.9,-9.7 l -10.7,-12.4 c -4.9,2.5 -9.9,4.5 -15.2,5.9 z"
   id="path34" />
	<path
   class="st10"
   d="m 571,128 c -0.9,0.8 -1.8,1.4 -2.9,1.8 -3.7,1.6 -7.6,3 -11.6,4.3 0.9,1.1 1.9,2.2 2.9,3.4 5.3,-1.4 10.3,-3.4 15.2,-5.9 l -3.3,-3.8 c -0.1,0 -0.2,0.1 -0.3,0.2 z"
   id="path35" />
	<path
   class="st7"
   d="m 594.1,155 c -0.1,0.2 0,0.4 0.1,0.5 0.2,0.1 0.4,0 0.5,-0.1 v 0 c 0.2,-0.3 1.4,-2.5 0.7,-4 0,-0.1 -0.1,-0.1 -0.1,-0.2 -1.5,-2 -4.5,-2.8 -4.6,-2.8 -0.2,0 -0.4,0.1 -0.5,0.3 0,0.2 0.1,0.4 0.3,0.5 0,0 2.9,0.7 4.2,2.5 0,0.1 0.1,0.1 0.1,0.2 0.4,0.9 -0.3,2.5 -0.7,3.1 z"
   id="path36" />
	<path
   class="st7"
   d="m 589.8,158.6 c -0.1,0.2 -0.1,0.4 0.1,0.5 0.2,0.1 0.4,0.1 0.5,-0.1 v 0 c 0.6,-1 0.6,-2.2 -0.1,-3.2 -0.1,-0.1 -0.2,-0.2 -0.2,-0.3 -1.5,-1.8 -4.3,-2.6 -4.4,-2.6 -0.2,-0.1 -0.4,0.1 -0.5,0.3 -0.1,0.2 0.1,0.4 0.3,0.5 0,0 0,0 0,0 0,0 2.7,0.7 4,2.4 0.1,0.1 0.2,0.3 0.3,0.4 0.4,0.6 0.4,1.4 0,2.1 z"
   id="path37" />
	<path
   class="st7"
   d="m 588.5,146.2 -2,-2.3 c -0.4,-0.1 -0.8,-0.1 -1.3,-0.1 l -13.9,-16.2 -0.1,0.1 3.3,3.8 10.7,12.4 2.4,2.8 c -2.4,1.5 -4.4,3.7 -5.8,6.2 -0.1,0.2 0,0.4 0.2,0.5 0.2,0.1 0.4,0 0.5,-0.2 1.3,-2.5 3.3,-4.6 5.7,-6 0.1,0 0.1,0 0.2,0 0.3,-0.1 6.2,-2.8 10,3.4 0,0.1 0.1,0.1 0.1,0.2 0.9,1.6 -1.4,5.6 -5.4,9.3 -3.4,3.1 -6.7,4.9 -8.8,4.9 -0.4,0 -0.9,-0.1 -1.2,-0.4 -0.5,-0.3 -4.5,-4.9 -9.8,-10.9 -4.3,-4.9 -9.4,-10.8 -14,-16.2 v 0 c 3.7,4.3 9.2,10.7 14,16.2 0,0.4 0,0.8 0,1.3 4.9,5.6 8.9,10.1 9.4,10.4 0.5,0.4 1.2,0.6 1.9,0.5 2.7,0 6.5,-2.5 9.3,-5.1 3.8,-3.5 7,-8.1 5.6,-10.4 -3.8,-6.3 -9.6,-4.7 -11,-4.2 z"
   id="path38" />
	<path
   class="st8"
   d="m 573.5,128.8 -1.6,-1.9 c 0,0 0,0.1 -0.1,0.1 z"
   id="path39" />
	<path
   class="st8"
   d="m 573.4,153.6 c -4.8,-5.5 -10.3,-11.8 -14,-16.2 -0.3,0.1 -0.6,0.2 -0.9,0.2 -0.3,-0.4 -0.7,-0.8 -1,-1.2 l -1.9,-2.2 h -0.1 l 0.5,0.6 v 0 c 3.4,4 11,12.8 17.4,20 v 0 c -0.1,-0.3 -0.1,-0.8 0,-1.2 z"
   id="path40" />
	<path
   class="st8"
   d="m 574.7,131.4 -3.3,-3.8 v 0 l 13.9,16.2 c 0.4,0 0.9,0.1 1.3,0.1 v 0 l -11,-12.9 c -0.3,0.1 -0.5,0.2 -0.9,0.4 z"
   id="path41" />
	<path
   class="st11"
   d="m 559.4,137.4 c -1,-1.2 -2,-2.3 -2.9,-3.4 -0.3,0.1 -0.6,0.2 -0.9,0.3 l 1.9,2.2 c 0.3,0.4 0.7,0.8 1,1.2 0.3,-0.1 0.6,-0.2 0.9,-0.3 v 0 z"
   id="path42" />
	<path
   class="st11"
   d="m 571.4,127.6 3.3,3.8 c 0.4,-0.2 0.7,-0.3 0.8,-0.4 v 0 l -1.8,-2.1 -0.1,-0.1 -1.7,-1.8 c -0.2,0.2 -0.3,0.4 -0.5,0.6 z"
   id="path43" />
	<path
   class="st12"
   d="m 495.4,130.2 c -1.3,0.1 -2.7,0.1 -4,0.1 -5.4,0 -10.5,0 -11.8,3.8 -0.1,0.6 -0.1,1.3 0.1,2 0.1,0.2 -0.1,0.5 -0.3,0.5 v 0 c 0,0 -0.1,0 -0.1,0 -0.2,0 -0.4,-0.1 -0.4,-0.3 -0.2,-0.6 -0.2,-1.1 -0.2,-1.7 -0.7,0.1 -1.3,0.2 -2,0.4 -1.9,0.6 -3.4,2.3 -3.5,3.5 -0.1,0.7 0,1.4 0.4,2 0.5,0.5 1,1.1 1.4,1.7 0.1,0.2 0,0.5 -0.2,0.6 -0.2,0.1 -0.5,0 -0.6,-0.2 -0.2,-0.3 -0.4,-0.6 -0.6,-0.9 -2.3,1.1 -1.9,3.1 -1.8,3.4 1,3.6 6.2,2.9 7.7,2.6 0,0 0.1,0 0.1,0 0.2,0 0.4,0.1 0.4,0.3 0.5,2 2.6,2.4 4.4,2.4 3.6,0 8.1,-0.8 13.8,-2.3 v 0 c 0,0 0,0 0.1,0 0.1,0 0.2,0 0.3,-0.1 -4.6,-1.4 -8.1,-9.9 -3.2,-17.8 z"
   id="path44" />
	<path
   class="st6"
   d="m 511.4,126.1 c -4.4,1.8 -9,3.1 -13.6,3.9 -0.7,0.1 -1.5,0.2 -2.3,0.2 v 0 c -4.9,7.8 -1.4,16.4 3.2,17.9 v 0 c 7.4,-1.8 14.3,-5.3 20.2,-10.3 -2.3,-1.2 -4.2,-3.1 -5.3,-5.6 -0.2,-0.5 -0.4,-0.9 -0.6,-1.4 -0.7,-1.5 -1.2,-3.1 -1.6,-4.7 z"
   id="path45" />
	<path
   class="st13"
   d="m 478.8,133.6 c 0,0 0,0.1 0,0 0,0.1 0,0 0,0 z"
   id="path46" />
	<path
   class="st13"
   d="m 478.8,136.3 c 0.1,0.2 0.2,0.3 0.4,0.3 0,0 0.1,0 0.1,0 0.2,-0.1 0.4,-0.3 0.3,-0.5 v 0 c -0.2,-0.6 -0.2,-1.3 -0.1,-2 0,0 0,0.1 -0.1,0.1 -0.1,0.2 -0.2,0.3 -0.4,0.3 0,0 -0.2,0 -0.5,0 0,0.7 0.1,1.3 0.3,1.8 z"
   id="path47" />
	<path
   class="st13"
   d="m 474.6,142.9 c 0.2,0 0.4,-0.2 0.4,-0.4 0,-0.1 0,-0.1 -0.1,-0.2 -0.4,-0.6 -0.8,-1.2 -1.4,-1.7 0.1,0.1 0.2,0.2 0.3,0.4 0.2,0.2 0.2,0.4 0.1,0.6 0,0.1 -0.1,0.1 -0.2,0.1 -0.1,0 -0.2,0.1 -0.3,0.1 0.2,0.3 0.5,0.6 0.6,0.9 0.2,0.1 0.4,0.2 0.6,0.2 z"
   id="path48" />
	<path
   class="st14"
   d="m 498.6,148.2 v 0 c -0.1,0 -0.2,0.1 -0.3,0.1 0,0 0,0 -0.1,0 v 0 c -5.7,1.5 -10.2,2.3 -13.8,2.3 -1.7,0 -3.9,-0.4 -4.4,-2.4 0,-0.2 -0.2,-0.3 -0.4,-0.3 0,0 -0.1,0 -0.1,0 -1.6,0.3 -6.8,1 -7.7,-2.6 -0.1,-0.4 -0.5,-2.3 1.8,-3.4 0.1,0 0.2,-0.1 0.3,-0.1 0.2,-0.1 0.3,-0.4 0.2,-0.6 0,-0.1 -0.1,-0.1 -0.1,-0.2 -0.1,-0.1 -0.2,-0.2 -0.3,-0.4 -0.4,-0.6 -0.5,-1.3 -0.4,-2 0.1,-1.2 1.6,-2.9 3.5,-3.5 0.6,-0.2 1.3,-0.3 2,-0.4 0.3,0 0.5,0 0.5,0 0.2,0 0.4,-0.1 0.4,-0.3 0,-0.1 0,-0.1 0.1,-0.1 1.3,-3.8 6.4,-3.8 11.8,-3.8 1.4,0 2.7,0 4,-0.1 v 0 c 0.2,-0.3 0.3,-0.6 0.5,-0.9 -1.5,0.1 -3,0.1 -4.6,0.1 -5.4,0 -11,0 -12.6,4.2 0,0 0,0.1 0,0.1 0,0 0,0 0,0 -0.8,0.1 -1.6,0.2 -2.4,0.5 -2.4,0.7 -4,2.8 -4.1,4.3 -0.1,0.9 0.1,1.9 0.6,2.6 -1.6,0.8 -2.5,2.6 -2,4.3 0.8,2.8 3.9,4 8.4,3.3 0.6,1.7 2.4,2.7 5,2.7 h 0.1 c 3.7,0 8.2,-0.8 14,-2.3 0.6,-0.1 1.2,-0.3 1.8,-0.4 -0.7,-0.3 -1.2,-0.5 -1.7,-0.7 z"
   id="path49" />
	<path
   class="st8"
   d="m 495.4,130.2 c 0.8,0 1.6,-0.1 2.3,-0.2 4.7,-0.8 9.3,-2.1 13.6,-3.9 -0.1,-0.3 -0.1,-0.6 -0.2,-0.9 -4.3,1.8 -8.9,3.1 -13.5,3.9 -0.5,0.1 -1.1,0.1 -1.7,0.2 -0.1,0.3 -0.3,0.6 -0.5,0.9 z"
   id="path50" />
	<path
   class="st8"
   d="m 518.8,137.9 c -5.8,5 -12.7,8.5 -20.2,10.3 0.5,0.3 1,0.4 1.6,0.5 7.2,-2 13.9,-5.5 19.5,-10.4 -0.3,-0.1 -0.6,-0.3 -0.9,-0.4 z"
   id="path51" />
	<path
   class="st15"
   d="m 531.6,34.1 c 0.3,-0.1 0.6,-0.2 0.9,-0.2 0.3,-1.2 0.7,-2.4 1.2,-3.6 -0.5,-0.7 -0.7,-1.6 -0.7,-2.5 0.1,-1.7 1,-3.2 2.4,-4.1 0.3,-0.2 0.6,-0.3 1,-0.5 1.4,-3.6 4,-9.8 5,-11.2 0.4,-0.6 1,-0.5 1.3,0.2 0.3,0.7 1.7,6.6 2.4,9.2 0.1,0.3 0.2,0.7 0.3,1.1 1.1,0.3 2.1,0.7 3.1,1.2 -0.9,-3.3 -1.7,-6.3 -2.1,-8 -1.1,-4.3 -3.3,-12.7 -3.6,-13.9 -0.2,-0.6 -0.4,-1 -0.7,-1.1 0,0 -0.1,0 -0.1,0 -0.2,0 -0.7,0.2 -1.5,1.1 -2.8,3.3 -6.1,11.5 -8.3,16.9 -0.7,1.6 -1.2,3.1 -1.7,4 l -0.3,0.7 c -1.9,4 -3.5,8.1 -4.8,12.2 1.9,-0.3 4,-0.9 6.2,-1.5 z"
   id="path52" />
	<path
   class="st15"
   d="m 550.6,31.9 c -0.2,0.2 -0.5,0.4 -0.7,0.5 -0.3,0.2 -0.6,0.3 -1,0.4 0.9,0.4 1.8,1.1 2.5,1.8 -0.3,-0.8 -0.5,-1.8 -0.8,-2.7 z"
   id="path53" />
	<path
   class="st13"
   d="m 525.6,33.4 c -0.2,0.6 -0.5,1.1 -1,1.5 -0.1,0.4 -0.3,0.9 -0.4,1.3 0.3,-0.1 0.7,-0.2 1,-0.3 1.4,-4.2 3,-8.2 4.8,-12.2 l 0.3,-0.7 c 0.4,-1 1,-2.4 1.7,-4 2.2,-5.4 5.5,-13.6 8.3,-16.9 0.8,-0.9 1.3,-1.1 1.5,-1.1 0,0 0.1,0 0.1,0 0.3,0.1 0.5,0.4 0.7,1.1 0.4,1.2 2.6,9.6 3.6,13.9 0.4,1.7 1.2,4.7 2.1,8 0.4,0.2 0.8,0.5 1.1,0.8 -1,-3.7 -1.9,-7.2 -2.4,-9 -1,-3.9 -3.3,-12.6 -3.7,-13.9 -0.3,-1 -0.7,-1.5 -1.4,-1.7 -0.9,-0.2 -1.8,0.7 -2.4,1.4 -2.9,3.4 -6.3,11.7 -8.5,17.1 -0.7,1.6 -1.2,3 -1.7,4 l -0.3,0.7 c -0.9,2.1 -2.3,5 -3.4,8.2 0.3,0.5 0.2,1.2 0,1.8 z"
   id="path54" />
	<path
   class="st13"
   d="m 550.6,31.9 c 0.3,1 0.5,1.9 0.7,2.7 0.6,0.6 1.1,1.3 1.5,2 0,0 0,0 0,0 -0.4,-1.3 -0.9,-3.3 -1.5,-5.5 -0.2,0.3 -0.4,0.6 -0.7,0.8 z"
   id="path55" />
	<path
   class="st16"
   d="m 540.2,32.1 c 0.4,-0.1 0.8,-0.1 1.1,-0.2 -0.6,0 -1.3,0 -2,0 -1.8,0.1 -3.6,0.1 -4.7,-0.7 -0.4,-0.3 -0.7,-0.6 -1,-1 -0.4,1.2 -0.8,2.4 -1.2,3.6 2.6,-0.7 5.2,-1.2 7.8,-1.7 z"
   id="path56" />
	<path
   class="st16"
   d="m 542.6,12.3 c -0.3,-0.8 -0.8,-0.9 -1.3,-0.2 -0.9,1.4 -3.5,7.5 -5,11.2 2.5,-1 5.2,-1.3 7.8,-0.9 0.4,0.1 0.8,0.1 1.1,0.2 -0.1,-0.4 -0.2,-0.8 -0.3,-1.1 -0.6,-2.6 -2.1,-8.4 -2.3,-9.2 z"
   id="path57" />
	<path
   class="st15"
   d="m 504.9,34.2 c 0.6,-1.7 4.4,-11.3 5.5,-13.2 0.7,-1.3 1,-1 1.3,-0.2 0.3,0.8 2.1,6.7 2.8,9.2 v 0 c 0.3,-0.2 0.6,-0.4 0.8,-0.5 0.5,-0.3 1.1,-0.6 1.6,-0.8 -0.6,-1.9 -1.1,-3.5 -1.4,-4.6 -0.2,-0.9 -0.6,-2.2 -0.9,-3.5 -1.1,-4.2 -2.5,-10 -3.1,-11.2 -0.1,-0.3 -0.2,-0.3 -0.3,-0.3 v 0 c -0.4,0 -1.1,0.7 -1.7,1.6 -1.9,2.8 -8.3,17 -9.4,19.7 -0.3,0.8 -0.7,1.7 -1.1,2.7 -2.1,4.9 -4.9,11.8 -5.5,15.9 1.3,-1.9 3.4,-3.1 5.7,-4 0.7,-0.3 1.6,-0.6 2.5,-1 0.9,-3.3 1.9,-6.6 3.2,-9.8 z"
   id="path58" />
	<path
   class="st13"
   d="m 493.5,49 c 0.6,-4.1 3.4,-11 5.5,-15.9 0.4,-0.9 0.8,-1.8 1.1,-2.7 1.1,-2.7 7.5,-16.9 9.4,-19.7 0.6,-0.9 1.3,-1.6 1.7,-1.6 v 0 c 0,0 0.1,0 0.3,0.3 0.6,1.2 2,6.9 3.1,11.2 0.3,1.3 0.7,2.6 0.9,3.5 0.3,1.1 0.8,2.8 1.4,4.6 0.3,-0.1 0.5,-0.2 0.8,-0.3 -0.6,-1.8 -1.1,-3.5 -1.4,-4.5 -0.2,-0.9 -0.6,-2.2 -0.9,-3.5 -1.1,-4.5 -2.6,-10.1 -3.2,-11.3 -0.2,-0.4 -0.6,-0.7 -1,-0.8 -1.1,-0.1 -2.2,1.5 -2.5,2 -1.9,2.9 -8.3,17.1 -9.4,19.9 -0.3,0.8 -0.7,1.7 -1.1,2.7 -2.7,6.5 -6,14.4 -5.6,18.2 0.2,-0.8 0.5,-1.5 0.9,-2.1 z"
   id="path59" />
	<path
   class="st16"
   d="m 509.3,37.7 c 0.3,-2.9 2.7,-5.8 5.1,-7.6 v 0 c -0.7,-2.5 -2.5,-8.5 -2.8,-9.2 -0.3,-0.7 -0.6,-1.1 -1.3,0.2 -1,1.9 -4.8,11.4 -5.5,13.2 -1.3,3.2 -2.3,6.5 -3.1,9.8 2.2,-0.9 5,-1.9 8.1,-3.1 -0.4,-1 -0.6,-2.2 -0.5,-3.3 z"
   id="path60" />
	<path
   class="st6"
   d="m 552.1,83.5 c -0.1,0 -0.2,0 -0.4,0.1 v 0 c 0.2,-0.1 0.3,-0.1 0.4,-0.1 z"
   id="path61" />
	<path
   class="st6"
   d="m 572.1,115.3 c -0.2,-1.2 -0.4,-2.5 -0.5,-3.7 -0.4,-3.9 -3.2,-17.2 -6.8,-31.7 -0.7,0.3 -1.4,0.5 -2.1,0.7 l -0.4,0.1 c -2,0.6 -3.7,1.1 -5.3,1.6 0,0.4 -0.2,2.2 -0.9,3.2 -0.7,0.9 -3.2,1.5 -4.7,1.7 0.4,2.9 1.7,5.6 3.5,7.9 0.7,-0.4 1.3,-0.8 1.9,-1.4 0.2,-0.2 0.5,-0.2 0.6,0 0.1,0.2 0.2,0.5 0,0.6 0,0 0,0 0,0 -0.2,0.2 -0.5,0.4 -0.7,0.6 -4.5,6.6 -13.5,6.5 -16.1,6.6 -4.2,0.1 -8.2,-1.7 -10.9,-5 -2.2,-2.5 -3.4,-5.8 -3.4,-9.1 0,-3.1 1.9,-6.1 3.9,-8.5 0.5,-3.1 2.1,-5.8 4.6,-7.6 6.2,-4.6 6.8,-8.7 6.8,-8.7 l -2.5,-11.2 -0.3,0.1 c -0.2,0.1 -0.5,-0.1 -0.5,-0.3 -0.1,-0.2 0.1,-0.5 0.3,-0.5 v 0 l 0.5,-0.1 c -1.2,-5 -1.2,-8.8 0.2,-11.5 0,-2.1 0.2,-4.1 0.7,-6.1 v 0 c -2.4,0.4 -5.1,1 -8.2,1.9 -3,0.8 -6,1.7 -8.9,2.6 1.3,0.8 2.5,1.8 3.4,2.9 3.7,0.1 6.9,2.5 9.4,7.1 1.4,2.6 2.4,5.3 3.1,8.1 v 0 c 1.6,7.5 -0.4,11.5 -2.4,13.5 -1.9,2 -4.8,3 -8.1,3 0,0 -0.1,0 -0.1,0 -1,2.2 -2.5,4.2 -4.4,5.9 -4.7,4 -11.9,7.3 -18.1,8.6 5.6,2 10.2,3.8 10.7,3.9 0.2,0.1 0.3,0.3 0.3,0.6 -0.1,0.2 -0.3,0.3 -0.6,0.3 -0.2,-0.1 -16.3,-6 -25.4,-9.3 h -0.1 c 1.2,1.9 3.9,7.5 -3.4,10.8 v 0 c 9.1,3.3 24.8,8.9 25,8.9 0.2,0.1 0.4,0.3 0.3,0.6 0,0.1 -0.1,0.2 -0.3,0.3 -0.1,0 -0.1,0 -0.2,0 -0.1,0 -0.1,0 -0.1,0 -0.3,-0.1 -1.8,-0.7 -4.2,-1.5 l -1.4,-0.5 c 0,0.1 0.1,0.2 0.1,0.3 0.9,0 4.8,0.5 5.5,5.5 0.7,4.6 -2.1,5.7 -2.8,5.9 v 0 c 0.2,0.9 0.4,1.7 0.6,2.6 v 0 c 0.5,-0.3 1.1,-0.4 1.7,-0.4 3.3,0 4.8,2.9 6.1,7 1,3.1 1,7.3 0.3,8.6 -0.8,1.1 -2,1.9 -3.4,2 v 0 c 2.5,4.8 6.6,6.2 13.6,6 v 0 c -0.9,-4.6 -1.6,-10.1 -1.8,-13.3 -0.7,-9.5 1.7,-16.5 12.3,-20.5 5,-1.9 9.9,-2.7 15.3,-3.3 9.6,-1.1 12.1,5.3 13.9,9.9 1.5,3.7 2.6,12.2 2.9,15.6 v 0 c 3,-2.6 2.3,-6.9 1.5,-11.3 z"
   id="path62" />
	<path
   class="st15"
   d="m 523.9,78.1 c 1.8,-1.6 3.3,-3.6 4.4,-5.9 -1.1,0 -2.1,-0.1 -3.2,-0.3 -4.8,-1 -10.1,-7.2 -10.2,-16.7 -0.1,-7.7 3.6,-13.2 9.8,-14.6 0.5,-0.1 1.1,-0.1 1.6,-0.1 -1,-1.2 -2.1,-2.1 -3.4,-2.9 v 0 c -1.2,0.4 -2.3,0.7 -3.5,1.1 -0.4,0.3 -0.7,0.6 -1.1,1 -1.6,1.5 -3.2,3 -4.9,3.1 -0.1,0 -0.2,0 -0.3,0 -1,0 -1.9,-0.3 -2.6,-1 -4.7,1.7 -8.5,3.2 -10.9,4.1 -5.3,2.1 -8.2,5.1 -5.4,13.2 2.4,6.9 5.3,16.2 8.1,26.3 1.2,0.4 2.4,0.9 3.5,1.3 6.2,-1.3 13.5,-4.6 18.1,-8.6 z"
   id="path63" />
	<path
   class="st15"
   d="m 512.1,106.7 c -0.7,-5 -4.6,-5.6 -5.5,-5.5 v 0 c 1.1,4.2 1.9,7.9 2.7,11.4 0.8,-0.2 3.5,-1.3 2.8,-5.9 z"
   id="path64" />
	<path
   class="st15"
   d="m 518,130.4 c 0.7,-1.3 0.6,-5.5 -0.3,-8.6 -1.3,-4.1 -2.8,-7 -6.1,-7 -0.6,0 -1.2,0.1 -1.7,0.4 0.1,0.4 0.2,0.7 0.2,1.1 1.3,6 2.3,10.8 3.7,14.4 0.2,0.6 0.5,1.3 0.9,1.9 1.2,-0.3 2.5,-1.1 3.3,-2.2 z"
   id="path65" />
	<path
   class="st15"
   d="m 540,33.1 c -0.5,2 -0.7,4 -0.7,6.1 0.1,-0.2 0.2,-0.3 0.3,-0.5 0.8,-1.4 2.2,-2.4 3.8,-2.8 1.4,-0.4 2.8,-0.3 4.1,0.4 2.9,1.4 5.4,4.8 7.4,10.2 l 0.5,-0.1 c 0.1,0 0.1,-0.1 0.2,-0.1 -0.9,-2.8 -1.8,-5.3 -2.6,-7.3 -1.4,-3.4 -3.3,-5.2 -6,-5.9 -0.7,0 -1.3,-0.1 -2,-0.3 -0.3,0 -0.6,0 -1,0 -1.3,-0.1 -2.7,0 -4,0.3 z"
   id="path66" />
	<path
   class="st17"
   d="m 567.9,111.2 c -1.8,-4.6 -4.3,-10.9 -13.9,-9.9 -5.4,0.6 -10.4,1.5 -15.3,3.3 -10.6,4 -13,11 -12.3,20.5 0.2,3.2 0.9,8.7 1.8,13.3 2.4,-0.1 5.2,-0.4 8.4,-0.8 10.7,-1.5 21.2,-4.4 31.1,-8.7 1.2,-0.5 2.2,-1.2 3.1,-2.1 -0.3,-3.4 -1.4,-11.9 -2.9,-15.6 z"
   id="path67" />
	<path
   class="st18"
   d="m 522.9,37.5 v 0 c 2.9,-0.9 5.9,-1.8 8.9,-2.6 3.1,-0.8 5.8,-1.5 8.2,-1.9 0.1,-0.3 0.1,-0.6 0.2,-0.9 -2.6,0.4 -5.2,1 -7.7,1.7 -0.3,0.1 -0.6,0.2 -0.9,0.2 -2.1,0.6 -4.2,1.2 -6.3,1.8 -0.3,0.1 -0.7,0.2 -1,0.3 -0.8,0.3 -1.7,0.5 -2.5,0.8 0.3,0.2 0.7,0.4 1.1,0.6 z"
   id="path68" />
	<path
   class="st18"
   d="m 567.9,89.1 c -0.7,-3.1 -1.5,-6.3 -2.3,-9.5 -0.3,0.1 -0.5,0.3 -0.8,0.4 3.6,14.5 6.4,27.8 6.8,31.7 0.1,1.2 0.3,2.4 0.5,3.7 0.7,4.4 1.4,8.6 -1.3,11.5 0,0.4 0.1,0.8 0.1,1.1 0.1,-0.1 0.2,-0.2 0.3,-0.3 l 0.1,-0.1 v 0 c 0.2,-0.2 0.4,-0.4 0.5,-0.6 0,0 0,-0.1 0.1,-0.1 2.5,-3.2 1.7,-7.7 1.1,-11.7 -0.2,-1.3 -0.4,-2.4 -0.5,-3.6 -0.3,-2.9 -2,-11.3 -4.3,-21.5 -0.1,-0.3 -0.2,-0.6 -0.3,-1 z"
   id="path69" />
	<path
   class="st18"
   d="m 523.5,139.2 c 1.1,0.1 2.1,0.2 3.2,0.2 0.5,0 1.1,0 1.6,0 -0.1,-0.3 -0.1,-0.6 -0.2,-0.9 -7,0.3 -11,-1.2 -13.6,-6 -0.4,0 -0.8,-0.1 -1.1,-0.1 1,2.4 2.9,4.4 5.3,5.6 0.3,0.1 0.6,0.3 0.9,0.4 0.9,0.4 1.9,0.6 2.9,0.8 0.4,-0.1 0.7,-0.1 1,0 z"
   id="path70" />
	<path
   class="st18"
   d="m 506.4,101.2 c 0.1,0 0.1,0 0.2,0 v 0 c 0,-0.1 -0.1,-0.2 -0.1,-0.3 l -1,-0.4 c 0.1,0.3 0.2,0.6 0.2,0.9 0.3,-0.2 0.5,-0.2 0.7,-0.2 z"
   id="path71" />
	<path
   class="st18"
   d="m 509.8,115.2 c 0,0 0,0 0,0 -0.1,-0.9 -0.3,-1.7 -0.5,-2.6 -0.1,0 -0.1,0 -0.2,0 -0.3,0 -0.5,0 -0.7,-0.2 0.2,1.1 0.5,2.2 0.7,3.2 0.2,-0.1 0.4,-0.2 0.7,-0.4 z"
   id="path72" />
	<path
   class="st7"
   d="m 555.6,134.3 c 0.3,-0.1 0.6,-0.2 0.9,-0.3 4,-1.2 7.9,-2.7 11.6,-4.3 1.1,-0.4 2,-1 2.9,-1.8 0,-0.3 -0.1,-0.7 -0.1,-1.1 v 0 c -0.9,0.9 -1.9,1.6 -3.1,2.1 -10,4.2 -20.4,7.1 -31.1,8.7 -3.2,0.4 -6,0.7 -8.4,0.8 v 0 c 0,0.3 0.1,0.6 0.2,0.9 2.5,-0.1 5.3,-0.4 8.4,-0.8 0.8,-0.1 1.6,-0.2 2.4,-0.4 0.3,-0.1 0.6,-0.1 0.9,-0.2 5.1,-0.8 10.2,-2 15.4,-3.6 0.1,0.2 0.2,0.4 0.4,0.6 z"
   id="path73" />
	<path
   class="st14"
   d="m 509.1,112.6 c 0.1,0 0.1,0 0.2,0 v 0 c -0.8,-3.5 -1.6,-7.3 -2.7,-11.4 -0.1,0 -0.1,0 -0.2,0 -0.2,0 -0.5,0.1 -0.7,0.2 1,4 1.9,7.7 2.6,11.1 0.3,0.1 0.5,0.1 0.8,0.1 z"
   id="path74" />
	<path
   class="st14"
   d="m 511.4,126.1 c 0.4,1.6 0.9,3.2 1.5,4.8 0.2,0.5 0.4,1 0.6,1.4 0.3,0.1 0.6,0.1 1.1,0.1 v 0 c -0.3,-0.6 -0.6,-1.2 -0.9,-1.9 -1.4,-3.6 -2.4,-8.3 -3.7,-14.4 -0.1,-0.3 -0.1,-0.7 -0.2,-1.1 v 0 c 0,0 0,0 -0.1,0 -0.3,0.2 -0.5,0.3 -0.7,0.5 0.1,0.2 0.1,0.5 0.2,0.7 0.7,3.3 1.3,6.3 2,8.8 0,0.5 0.1,0.8 0.2,1.1 z"
   id="path75" />
	<path
   class="st14"
   d="m 551.3,34.6 c -0.7,-0.7 -1.5,-1.4 -2.5,-1.8 -0.5,0.2 -1.1,0.3 -1.7,0.3 -0.1,0 -0.2,0 -0.3,0 2.7,0.7 4.6,2.5 6,5.9 0.8,2 1.7,4.4 2.6,7.3 -0.1,0 -0.1,0.1 -0.2,0.1 -0.5,0.3 -0.9,0.7 -1.2,1.2 -0.4,0.9 -0.4,1.9 -0.2,2.8 0.4,2.2 3.5,4.6 5.5,6.2 l 0.3,0.3 c 0.2,0.2 0.5,0.4 0.7,0.6 1.6,1.3 3.6,3 5.8,3 0.3,0 0.5,0 0.7,-0.1 1.4,-0.3 2.4,-1.4 3,-2.8 0.3,-0.7 0.6,-1.4 0.7,-2.1 0.3,-1 0.5,-2.1 0.6,-3.1 0.3,-3.2 0.5,-6.3 -0.8,-7.8 -1.6,-1.9 -3,-1.6 -7.5,-0.5 l -1.1,0.3 c -1.9,0.4 -3.9,1 -5.7,1.7 -0.9,-2.8 -1.8,-5.2 -2.6,-7.2 -0.3,-0.7 -0.6,-1.3 -1,-2 0,-1 -0.5,-1.7 -1.1,-2.3 z m 9.1,21.4 -0.3,-0.3 c -1.8,-1.4 -4.8,-3.8 -5.2,-5.6 -0.6,-3 0.4,-3.4 7.4,-5.2 l 1.1,-0.3 c 2.3,-0.6 3.6,-0.9 4.5,-0.9 0.8,0 1.6,0.4 2.1,1.1 1.2,1.5 0.8,5.5 0.6,7.2 -0.2,1.6 -0.9,6.9 -3.6,7.3 -2,0.4 -4.1,-1.3 -5.8,-2.7 -0.3,-0.2 -0.5,-0.4 -0.8,-0.6 z"
   id="path76" />
	<path
   class="st14"
   d="m 540,33.1 v 0 c 1.3,-0.2 2.7,-0.4 4,-0.4 0.3,0 0.6,0 1,0 -0.3,-0.1 -0.7,-0.2 -1,-0.3 -0.6,-0.1 -1.1,-0.3 -1.7,-0.4 -0.3,-0.1 -0.6,-0.1 -0.9,-0.1 -0.4,0 -0.8,0.1 -1.1,0.2 -0.2,0.3 -0.3,0.7 -0.3,1 z"
   id="path77" />
	<path
   class="st14"
   d="m 502.3,85.4 c -2.9,-10.1 -5.7,-19.4 -8.1,-26.3 -2.8,-8.1 0.1,-11.2 5.4,-13.2 2.4,-0.9 6.2,-2.4 10.9,-4.1 0,0 0,0 0,0 -0.2,-0.2 -0.4,-0.5 -0.5,-0.7 -3.2,1.2 -5.9,2.2 -8.1,3.1 -0.9,0.4 -1.8,0.7 -2.5,1 -2.3,0.9 -4.4,2.1 -5.7,4 -0.4,0.6 -0.7,1.3 -0.9,1.9 -0.6,2.1 -0.5,4.8 0.8,8.4 2.3,6.7 5.1,15.8 7.9,25.6 z"
   id="path78" />
	<path
   class="st14"
   d="m 522.9,37.5 c -0.4,-0.2 -0.8,-0.4 -1.1,-0.6 l -0.3,0.1 c -0.4,0.3 -0.8,0.6 -1.3,1 -0.2,0.2 -0.5,0.4 -0.7,0.6 1,-0.3 2.2,-0.7 3.4,-1.1 z"
   id="path79" />
	<path
   class="st0"
   d="m 526.1,41.4 c -0.4,0 -0.8,0 -1.2,0.1 -5.7,1.3 -9.1,6.5 -9,13.7 0.1,6.8 3.6,14.5 9.4,15.7 4.2,0.9 8.1,0 10.5,-2.4 2.6,-2.6 3.3,-7 2.1,-12.6 -0.1,-0.2 -3.4,-14.5 -11.8,-14.5 z m -1.3,17.7 c -1.8,-5.6 0,-8.1 1.7,-8.1 1.3,0 2.5,0.8 3.5,3.5 0.5,1.3 2,6.4 -1.2,7.3 -1.4,0.5 -3.4,-0.8 -4,-2.7 z"
   id="path80" />
	<path
   class="st13"
   d="m 524.7,40.6 c -6.2,1.5 -9.9,6.9 -9.8,14.6 0.1,9.5 5.3,15.7 10.2,16.7 1.1,0.2 2.1,0.3 3.2,0.3 0,0 0.1,0 0.1,0 3.2,0 6.1,-1 8.1,-3 2,-2 4,-6 2.4,-13.5 v 0 c -0.7,-2.8 -1.7,-5.5 -3.1,-8.1 -2.5,-4.6 -5.8,-7.1 -9.4,-7.1 -0.6,-0.1 -1.2,0 -1.7,0.1 z m 11.1,27.9 c -2.3,2.4 -6.3,3.2 -10.5,2.4 -5.8,-1.2 -9.3,-8.9 -9.4,-15.7 -0.1,-7.2 3.3,-12.3 9,-13.7 0.4,-0.1 0.8,-0.1 1.2,-0.1 8.4,0 11.7,14.3 11.8,14.5 1.2,5.6 0.5,10 -2.1,12.6 z"
   id="path81" />
	<path
   class="st13"
   d="m 528.8,61.9 c 3.3,-0.9 1.7,-6 1.2,-7.3 -1,-2.7 -2.2,-3.5 -3.5,-3.5 -1.7,0 -3.6,2.5 -1.7,8.1 0.6,1.8 2.6,3.1 4,2.7 z"
   id="path82" />
	<path
   class="st0"
   d="m 553.9,46.7 c -2.3,-6.2 -5,-8.6 -6.9,-9.5 -1,-0.6 -2.3,-0.7 -3.4,-0.4 h -0.1 c -1.3,0.3 -2.5,1.2 -3.2,2.4 -1.1,1.8 -1.9,5.1 -0.4,11.2 l 2.4,-0.7 c -0.2,-1.1 -0.2,-2.2 0,-3.3 0.1,-1 0.8,-1.7 1.8,-1.8 1.2,-0.1 2.1,1.4 2.6,2.7 0.1,0.3 0.3,0.7 0.4,1.1 l 1.9,-0.5 z"
   id="path83" />
	<path
   class="st13"
   d="m 540,50.5 c -1.5,-6.1 -0.7,-9.5 0.4,-11.2 0.7,-1.2 1.8,-2.1 3.2,-2.4 h 0.1 c 1.1,-0.3 2.4,-0.2 3.4,0.4 1.9,0.9 4.5,3.3 6.9,9.5 h 0.1 l 0.8,-0.2 c -2,-5.4 -4.5,-8.8 -7.4,-10.2 -1.3,-0.7 -2.7,-0.8 -4.1,-0.4 -1.6,0.4 -3,1.4 -3.8,2.8 -0.1,0.2 -0.2,0.3 -0.3,0.5 -1.4,2.7 -1.5,6.6 -0.2,11.5 z"
   id="path84" />
	<path
   class="st13"
   d="m 546.8,47.4 c -0.5,-1.3 -1.4,-2.8 -2.6,-2.7 -1,0.1 -1.7,0.8 -1.8,1.8 -0.2,1.1 -0.2,2.2 0,3.3 l 4.8,-1.3 c -0.1,-0.4 -0.3,-0.8 -0.4,-1.1 z"
   id="path85" />
	<path
   class="st17"
   d="m 523,28.9 c -0.6,-0.2 -1.2,-0.3 -1.8,-0.3 -1.9,0.1 -3.8,0.7 -5.5,1.7 -2.5,1.5 -5.3,4.6 -5.5,7.5 -0.1,1.5 0.2,2.6 0.8,3.3 0.6,0.6 1.5,0.9 2.3,0.7 1.4,-0.1 2.9,-1.5 4.4,-2.9 0.6,-0.6 1.3,-1.2 1.9,-1.7 1.4,-1.1 2.4,-1.7 3.1,-2.2 1.2,-0.8 1.7,-1.1 2.1,-2.1 0.3,-0.9 0.2,-2 -0.2,-2.8 -0.3,-0.5 -0.9,-1 -1.6,-1.2 z"
   id="path86" />
	<path
   class="st19"
   d="m 516.9,28.7 c -0.6,0.2 -1.1,0.5 -1.6,0.8 -0.3,0.2 -0.6,0.3 -0.8,0.5 -2.5,1.8 -4.9,4.7 -5.1,7.6 -0.2,1.1 0,2.3 0.6,3.3 0.1,0.3 0.3,0.5 0.5,0.7 0,0 0,0 0,0 0.7,0.7 1.7,1 2.6,1 0.1,0 0.2,0 0.3,0 1.7,-0.1 3.4,-1.6 4.9,-3.1 0.4,-0.3 0.7,-0.7 1.1,-1 0.2,-0.2 0.5,-0.4 0.7,-0.6 0.5,-0.4 0.9,-0.7 1.3,-1 0.7,-0.5 1.3,-0.8 1.7,-1.1 0.5,-0.3 1,-0.6 1.5,-1 0.4,-0.4 0.8,-0.9 1,-1.5 0.2,-0.6 0.3,-1.3 0.2,-1.9 0,-0.6 -0.2,-1.1 -0.4,-1.6 -0.4,-0.9 -1.2,-1.6 -2.2,-1.9 -1.8,-0.5 -3.8,-0.3 -5.5,0.4 -0.3,0.2 -0.5,0.3 -0.8,0.4 z m 7.9,4.4 c -0.4,1 -0.8,1.3 -2.1,2.1 -0.7,0.5 -1.7,1.1 -3.1,2.2 -0.6,0.5 -1.3,1.1 -1.9,1.7 -1.5,1.4 -3,2.8 -4.4,2.9 -0.8,0.1 -1.7,-0.2 -2.3,-0.7 -0.7,-0.7 -1,-1.8 -0.8,-3.3 0.3,-2.9 3,-6 5.5,-7.5 1.6,-1.1 3.5,-1.7 5.5,-1.7 0.6,0 1.2,0.1 1.8,0.3 0.7,0.2 1.3,0.7 1.6,1.4 0.4,0.6 0.5,1.6 0.2,2.6 z"
   id="path87" />
	<path
   class="st17"
   d="m 544.1,23.2 c -2.9,-0.4 -6.3,0.1 -8.2,1.2 -1.2,0.7 -1.9,2 -2,3.3 -0.1,1.1 0.4,2.1 1.3,2.8 0.9,0.6 2.6,0.6 4.2,0.5 0.5,0 0.9,0 1.3,0 0.6,0 1.2,0 1.8,0.1 0.6,0.1 1.2,0.3 1.8,0.4 1.9,0.5 3.5,0.9 5.3,0 1.8,-1 1.7,-2.4 1.4,-3.7 -0.9,-2.5 -4.2,-4.1 -6.9,-4.6 z"
   id="path88" />
	<path
   class="st19"
   d="m 548.4,23.8 c -1,-0.6 -2,-1 -3.1,-1.2 -0.4,-0.1 -0.8,-0.2 -1.1,-0.2 -2.6,-0.4 -5.4,-0.1 -7.8,0.9 -0.3,0.1 -0.6,0.3 -1,0.5 -1.4,0.9 -2.3,2.4 -2.4,4.1 0,0.9 0.2,1.7 0.7,2.5 0.3,0.4 0.6,0.7 1,1 1.1,0.8 3,0.8 4.7,0.7 0.7,0 1.4,0 2,0 0.3,0 0.6,0 0.9,0.1 0.6,0.1 1.2,0.3 1.7,0.4 0.3,0.1 0.7,0.2 1,0.3 0.7,0.2 1.3,0.3 2,0.3 0.1,0 0.2,0 0.3,0 0.6,0 1.1,-0.1 1.7,-0.3 0.3,-0.1 0.7,-0.2 1,-0.4 0.3,-0.1 0.5,-0.3 0.7,-0.5 0.3,-0.2 0.5,-0.5 0.7,-0.8 0.6,-1 0.8,-2.3 0.4,-3.5 -0.4,-1.2 -1.1,-2.3 -2.1,-3 -0.5,-0.4 -0.9,-0.6 -1.3,-0.9 z m 1,7.8 c -1.7,0.9 -3.4,0.5 -5.3,0 -0.6,-0.1 -1.2,-0.3 -1.8,-0.4 -0.6,-0.1 -1.2,-0.1 -1.8,-0.1 -0.4,0 -0.9,0 -1.3,0 -1.6,0 -3.3,0.1 -4.2,-0.5 -0.9,-0.6 -1.3,-1.7 -1.3,-2.8 0.1,-1.4 0.8,-2.6 2,-3.3 1.9,-1.2 5.3,-1.7 8.2,-1.2 2.8,0.4 6.1,2 6.7,4.6 0.5,1.3 0.6,2.7 -1.2,3.7 z"
   id="path89" />
	<path
   class="st20"
   d="m 533,76.2 c 2.5,-2.3 6,-5.9 8.5,-8.1 4.4,-3.9 3.8,-13.8 5.6,-17 0.3,-0.7 0.8,-1.4 1.3,-1.9 h -0.1 l -9.1,2.5 2.5,11.2 c 0,0 -0.7,4 -6.8,8.7 -2.5,1.8 -4.2,4.6 -4.6,7.6 0.8,-1.2 1.7,-2.1 2.7,-3 z"
   id="path90" />
	<path
   class="st17"
   d="m 550.8,99.1 c -8.2,3.3 -14.6,0.5 -15.8,-0.3 -2.9,-1.8 -5,-4.5 -6,-7.8 -0.7,-2.3 -0.4,-7 3,-10.5 2.9,-2.9 7.8,-6.7 10.1,-8.5 3.5,-2.8 6.3,-6.3 7.1,-10.6 1.4,-6.5 1.3,-11.9 3.7,-13.6 h -0.1 l -4.5,1.2 c -0.5,0.6 -0.9,1.2 -1.3,1.9 -1.8,3.3 -1.3,13.2 -5.6,17 -2.5,2.2 -6,5.7 -8.5,8.1 -1,0.9 -1.9,1.9 -2.8,2.9 -2,2.4 -3.9,5.3 -3.9,8.5 0,3.4 1.2,6.6 3.4,9.1 2.7,3.3 6.7,5.1 10.9,5 2.6,0 11.6,0 16.1,-6.6 l -0.1,0.1 c -1.5,1.8 -3.5,3.2 -5.7,4.1 z"
   id="path91" />
	<path
   class="st16"
   d="m 553.1,47.8 -0.2,0.1 c -2.3,1.7 -2.3,7.1 -3.7,13.6 -0.9,4.2 -3.6,7.8 -7.1,10.6 -2.3,1.8 -7.2,5.6 -10.1,8.5 -3.4,3.5 -3.7,8.2 -3,10.5 1,3.2 3.1,6 6,7.8 1.2,0.7 7.7,3.6 15.8,0.3 2.2,-0.9 4.2,-2.3 5.8,-4 -1.3,1 -4.2,2.8 -9.2,3.9 -1.6,0.4 -3.2,0.6 -4.9,0.6 -3.7,0 -6.8,-1.1 -9.1,-3.2 -2.5,-2.3 -3.7,-5.6 -3.2,-9 0.3,-1.9 1.3,-3.5 2.8,-4.6 2,-1.4 4.9,-1.8 8,-1 0.5,0.1 1,0.2 1.4,0.4 3.4,0.9 7,1.8 19.5,-2.2 l 0.4,-0.1 c 2.4,-0.7 6.8,-2 7.5,-8 0.5,-4.8 0.6,-9.7 0.2,-14.5 -0.7,1.4 -1.6,2.6 -3,2.8 -0.2,0 -0.5,0.1 -0.7,0.1 -2.1,0 -4.1,-1.6 -5.8,-3 -0.3,-0.2 -0.5,-0.4 -0.7,-0.6 l -0.3,-0.3 c -2,-1.6 -5.1,-4 -5.5,-6.2 -0.2,-0.9 -0.2,-1.9 0.2,-2.8 z"
   id="path92" />
	<path
   class="st13"
   d="m 551.8,83.5 v 0 c -1,0.1 -2,0.3 -3,0.3 1,0 2,-0.1 3,-0.3 z"
   id="path93" />
	<path
   class="st13"
   d="m 545.5,87.4 c -1.5,0.9 -3.1,1.3 -4.8,1.3 -1.3,0 -2.5,-0.3 -3.6,-0.9 -3.1,1 -5,0.4 -5.9,-0.1 -0.2,1.6 0,3.2 0.5,4.6 0.8,-0.3 10,-3.7 14.7,6 0.3,0 0.5,-0.1 0.8,-0.2 2.5,-0.5 4.8,-1.4 7.1,-2.6 -1.9,-2.4 -3.1,-5.2 -3.6,-8.2 -0.1,0 -0.2,0 -0.3,0 -0.9,0.3 -3.7,0.6 -4.9,0.1 z"
   id="path94" />
	<path
   class="st21"
   d="m 532,93 c 0.5,1 1.2,1.9 2,2.7 2.7,2.5 6.8,3.5 11.6,2.7 C 541.1,89.5 532.8,92.7 532,93 Z"
   id="path95" />
	<path
   class="st0"
   d="m 537,87 c 0.1,0 0.3,0 0.4,0.1 1.9,1.4 6,1 7.9,-0.4 0.1,-0.1 0.3,-0.1 0.5,0 0.4,0.3 2.1,0.4 4.6,0 2.6,-0.4 4.8,-1 5.2,-1.6 0.4,-0.8 0.7,-1.6 0.7,-2.5 -1.5,0.4 -2.9,0.7 -4.1,0.9 -0.1,0 -0.2,0 -0.4,0.1 -1,0.2 -2,0.3 -2.9,0.3 -2.2,0.1 -4.4,-0.1 -6.5,-0.8 -0.5,-0.1 -0.9,-0.2 -1.4,-0.4 -2.9,-0.7 -5.5,-0.3 -7.3,0.9 -1.1,0.8 -2,1.9 -2.3,3.3 0.5,0.4 2.3,1.2 5.6,0.1 z"
   id="path96" />
	<path
   class="st22"
   d="m 556.1,85.6 c 0.7,-1 0.9,-2.8 0.9,-3.2 -0.3,0.1 -0.5,0.1 -0.8,0.2 -0.1,0.9 -0.3,1.7 -0.7,2.5 -0.4,0.5 -2.7,1.2 -5.2,1.6 -2.5,0.4 -4.2,0.3 -4.6,0 -0.1,-0.1 -0.3,-0.1 -0.5,0 -1.9,1.4 -5.9,1.8 -7.9,0.4 -0.1,-0.1 -0.2,-0.1 -0.4,-0.1 -3.3,1.1 -5.1,0.3 -5.7,-0.1 -0.1,0.2 -0.1,0.5 -0.2,0.7 0,0 0,0.1 0,0.1 0.9,0.5 2.8,1.1 5.9,0.1 1.1,0.6 2.3,1 3.6,0.9 1.7,0 3.4,-0.4 4.8,-1.3 1.2,0.5 4,0.2 4.9,0 0.1,0 0.2,0 0.3,0 0.2,0 0.5,-0.1 0.8,-0.1 1.6,-0.3 4.2,-0.8 4.8,-1.7 z"
   id="path97" />
	<path
   class="st23"
   d="m 531.7,92.3 c 0.1,0.2 0.2,0.5 0.3,0.7 0.8,-0.3 9.1,-3.5 13.6,5.4 0.3,0 0.5,-0.1 0.8,-0.1 -4.7,-9.7 -13.9,-6.3 -14.7,-6 z"
   id="path98" />
	<path
   class="st24"
   d="m 554,46.6 c -0.3,0.4 -0.6,0.7 -1,1.1 l 0.1,0.1 1.1,-0.3 c 0.3,-0.5 0.7,-0.9 1.2,-1.2 l -0.5,0.1 z"
   id="path99" />
	<path
   class="st24"
   d="m 570.2,57.4 c 0.4,4.8 0.4,9.7 -0.2,14.5 -0.7,6 -5.1,7.3 -7.5,8 l -0.4,0.1 c -12.6,4 -16.1,3.1 -19.5,2.2 -0.5,-0.1 -0.9,-0.3 -1.4,-0.4 -3.1,-0.7 -6,-0.3 -8,1 -1.5,1.1 -2.6,2.7 -2.8,4.6 -0.5,3.3 0.7,6.7 3.2,9 2.3,2.1 5.4,3.2 9.1,3.2 1.6,0 3.3,-0.2 4.9,-0.6 5.1,-1.2 7.9,-3 9.2,-3.9 l 0.1,-0.1 c 0.2,-0.2 0.5,-0.4 0.7,-0.6 0.2,-0.2 0.2,-0.5 0,-0.6 -0.2,-0.2 -0.5,-0.2 -0.6,0 0,0 0,0 0,0 -0.6,0.5 -1.2,1 -1.9,1.4 -1.9,-2.3 -3.1,-5 -3.5,-7.9 -0.3,0.1 -0.6,0.1 -0.8,0.1 0.4,3 1.7,5.8 3.6,8.2 -2.2,1.2 -4.6,2.1 -7.1,2.6 -0.3,0.1 -0.5,0.1 -0.8,0.2 -0.3,0.1 -0.5,0.1 -0.8,0.1 -4.8,0.8 -8.8,-0.2 -11.6,-2.7 -0.8,-0.8 -1.5,-1.7 -2,-2.7 -0.1,-0.2 -0.2,-0.5 -0.3,-0.7 -0.6,-1.5 -0.8,-3.1 -0.5,-4.6 0,0 0,-0.1 0,-0.1 0,-0.2 0.1,-0.5 0.2,-0.7 0.3,-1.3 1.2,-2.5 2.3,-3.3 1.8,-1.2 4.4,-1.6 7.3,-0.9 0.5,0.1 0.9,0.2 1.4,0.4 2.1,0.6 4.3,0.9 6.5,0.8 1,-0.1 2,-0.2 3,-0.3 0.1,0 0.2,0 0.4,-0.1 1.2,-0.2 2.6,-0.5 4.1,-0.9 0.3,-0.1 0.5,-0.1 0.8,-0.2 1.6,-0.4 3.3,-0.9 5.3,-1.6 l 0.4,-0.1 c 0.7,-0.2 1.4,-0.4 2.1,-0.7 0.3,-0.1 0.5,-0.2 0.8,-0.4 2.2,-1.1 4.6,-3.2 5.2,-7.6 0,0 0,0 0,0 0.1,-0.4 0.1,-0.8 0.1,-1.2 0.5,-5 0.3,-9.9 -0.1,-15.5 -0.4,0.6 -0.6,1.3 -0.9,2 z"
   id="path100" />
	<path
   class="st8"
   d="m 548.3,49.1 c 0.3,-0.4 0.6,-0.8 0.8,-1.1 l -1.9,0.5 -4.8,1.3 -2.4,0.7 -1,0.3 -0.5,0.1 c -0.2,0.1 -0.4,0.3 -0.3,0.5 0.1,0.2 0.3,0.4 0.5,0.3 v 0 l 0.3,-0.1 z"
   id="path101" />
	<path
   class="st8"
   d="m 552.9,47.9 v 0 l 0.3,-0.1 -0.1,-0.1 z"
   id="path102" />
	<path
   class="st22"
   d="m 549.1,48 c -0.2,0.3 -0.5,0.7 -0.8,1.1 h 0.1 l 4.5,-1.2 0.2,-0.2 c 0.3,-0.3 0.7,-0.7 1,-1.1 H 554 Z"
   id="path103" />
	<path
   class="st25"
   d="m 567,59.3 c 2.7,-0.5 3.4,-5.7 3.6,-7.3 0.2,-1.7 0.6,-5.7 -0.6,-7.2 -0.5,-0.7 -1.2,-1.1 -2.1,-1.1 -0.9,0 -2.3,0.3 -4.5,0.9 l -1.1,0.3 c -7,1.7 -7.9,2.2 -7.4,5.2 0.3,1.9 3.4,4.2 5.2,5.6 l 0.3,0.3 c 0.2,0.2 0.5,0.4 0.7,0.6 1.8,1.4 3.9,3.1 5.9,2.7 z M 557.6,48 c -0.1,-1.7 2.3,-1.9 4.4,-2.5 2.8,-0.8 4.1,-1.3 5,-1.1 1.1,0.2 1.3,1.3 0.5,2.1 -0.8,0.8 -2.1,1.6 -5.2,2.2 -2.3,0.5 -4.6,0.9 -4.7,-0.7 z"
   id="path104" />
	<path
   class="st26"
   d="m 567.5,46.6 c 0.8,-0.8 0.6,-1.9 -0.5,-2.1 -1,-0.2 -2.3,0.3 -5,1.1 -2.1,0.6 -4.5,0.8 -4.4,2.5 0.1,1.6 2.4,1.2 4.8,0.7 3.1,-0.7 4.4,-1.4 5.1,-2.2 z"
   id="path105" />
	<path
   class="st5"
   d="m 490.7,82.2 c -3.1,-1.1 -5.5,-1.9 -6,-2 -0.2,-0.1 -0.5,-0.2 -0.6,-0.4 -0.1,-0.3 -0.1,-0.5 0,-0.8 0.4,-0.9 0.5,-1.9 0.3,-2.9 -0.2,-0.5 -0.5,-0.9 -1,-1.1 -0.8,-0.4 -1.7,-0.4 -2.4,-0.1 -0.7,0.3 -1.3,0.9 -1.5,1.6 -0.1,0.3 -0.3,0.5 -0.6,0.6 -0.5,0.1 -0.8,-0.4 -0.9,-0.6 -0.5,-0.9 -1.4,-1.5 -2.3,-1.7 -0.7,-0.2 -1.4,0 -2,0.4 -0.6,0.5 -0.9,1.3 -0.7,2.1 0.1,0.9 0.6,1.7 1.5,2 0.3,0.1 0.5,0.3 0.4,0.6 0,0 0,0 0,0.1 -0.2,0.5 -1.1,0.4 -1.4,0.3 -0.8,-0.2 -1.6,0 -2.3,0.4 -0.7,0.4 -1.1,1.2 -1.2,2 -0.2,1.9 1.9,2.9 2.3,3.1 0.2,0.1 0.4,0.3 0.4,0.6 0,0.3 -0.2,0.6 -0.6,0.8 -0.6,0.3 -1,0.8 -1.2,1.4 -0.1,0.6 0,1.2 0.4,1.7 0.4,0.6 1,1 1.8,1.1 1.2,0.1 2.4,-0.2 3.4,-1 0.3,-0.4 0.8,-0.4 1.1,-0.2 0,0 0.1,0 0.1,0.1 l 0.1,0.1 c 0.5,0.4 1.3,0.5 2.5,0.3 0.3,0 0.5,0.1 0.8,0.2 0.4,0.2 2.9,1.1 6.3,2.4 7.2,-3.6 4.5,-9.3 3.3,-11.1 z m -13.4,0.1 c 0,-0.2 0.1,-0.4 0.3,-0.5 0.2,0 0.4,0.1 0.5,0.3 v 0 c 0,0.1 0.5,2.6 3.6,2.3 0.2,0 0.4,0.1 0.4,0.4 0,0.2 -0.1,0.4 -0.3,0.4 -0.2,0 -0.4,0 -0.6,0 -1.9,0.2 -3.5,-1.1 -3.9,-2.9 z"
   id="path106" />
	<path
   class="st7"
   d="m 481.1,85.3 c 0.2,0 0.4,0 0.6,0 0.2,0 0.4,-0.2 0.3,-0.4 0,-0.2 -0.2,-0.4 -0.4,-0.3 -3.1,0.3 -3.6,-2.2 -3.6,-2.3 0,-0.2 -0.2,-0.4 -0.5,-0.3 -0.2,0 -0.4,0.2 -0.3,0.5 0.5,1.6 2.1,2.9 3.9,2.8 z"
   id="path107" />
	<path
   class="st7"
   d="m 512.1,102.8 c 0,0 0.1,0 0.1,0 0.1,0 0.1,0 0.2,0 -0.7,-0.2 -2.4,-0.8 -4.5,-1.5 2.4,0.8 3.9,1.4 4.2,1.5 z"
   id="path108" />
	<path
   class="st7"
   d="m 487.4,93 v 0 c -3.4,-1.2 -5.9,-2.2 -6.4,-2.4 -0.2,-0.1 -0.5,-0.2 -0.8,-0.2 -1.2,0.1 -2,0 -2.5,-0.3 L 477.6,90 c -0.3,-0.3 -0.8,-0.3 -1.1,0 0,0 0,0 -0.1,0.1 -1,0.8 -2.2,1.1 -3.4,1 -0.7,-0.1 -1.4,-0.5 -1.8,-1.1 -0.4,-0.5 -0.5,-1.1 -0.4,-1.7 0.2,-0.6 0.6,-1.1 1.2,-1.4 0.3,-0.1 0.5,-0.4 0.6,-0.8 0,-0.3 -0.2,-0.5 -0.4,-0.6 -0.4,-0.2 -2.5,-1.2 -2.3,-3.1 0.1,-0.8 0.5,-1.6 1.2,-2 0.7,-0.4 1.5,-0.6 2.3,-0.4 0.3,0.1 1.2,0.2 1.4,-0.3 0.1,-0.3 0,-0.6 -0.3,-0.7 0,0 0,0 -0.1,0 -0.8,-0.4 -1.4,-1.1 -1.5,-2 -0.1,-0.8 0.1,-1.6 0.7,-2.1 0.6,-0.4 1.3,-0.6 2,-0.4 1,0.2 1.8,0.8 2.3,1.7 0.1,0.2 0.4,0.7 0.9,0.6 0.3,-0.1 0.5,-0.3 0.6,-0.6 0.3,-0.7 0.8,-1.3 1.5,-1.6 0.8,-0.3 1.7,-0.3 2.4,0.1 0.5,0.2 0.8,0.6 1,1.1 0.2,1 0.1,2 -0.3,2.9 -0.1,0.2 -0.1,0.5 0,0.8 0.1,0.2 0.3,0.4 0.6,0.4 0.6,0.1 2.9,0.9 6,2 h 0.1 c -0.2,-0.3 -0.4,-0.6 -0.6,-0.9 -0.1,-0.1 -0.2,-0.2 -0.3,-0.4 -2.5,-0.9 -4.4,-1.5 -5,-1.7 0.5,-1.1 0.6,-2.4 0.4,-3.6 -0.2,-0.7 -0.8,-1.3 -1.4,-1.6 -1.8,-1 -4.1,-0.2 -5,1.6 0,0 0,0.1 0,0.1 -0.6,-1 -1.7,-1.8 -2.9,-2 v 0 c -0.9,-0.2 -1.9,0 -2.7,0.6 -0.8,0.7 -1.2,1.8 -1,2.9 0.1,0.7 0.4,1.4 0.9,1.9 -0.8,0 -1.6,0.2 -2.3,0.6 -0.9,0.6 -1.5,1.6 -1.6,2.6 -0.2,1.5 0.8,2.7 1.9,3.5 0.2,0.1 0.4,0.2 0.6,0.3 -0.6,0.4 -1.1,0.9 -1.4,1.6 -0.3,0.7 -0.3,1.5 0,2.1 0.1,0.2 0.2,0.4 0.4,0.6 0.5,0.8 1.4,1.3 2.4,1.4 1.5,0.1 2.9,-0.3 4.1,-1.2 0,0 0,0 0.1,-0.1 l 0.1,0.1 c 0.2,0.2 1,0.7 3.1,0.5 0.1,0 0.2,0 0.3,0.1 0.4,0.2 2.6,1 5.6,2.1 0.2,0.4 0.6,0.2 1,0 z"
   id="path109" />
	<path
   class="st8"
   d="m 490.7,82.2 c 9.2,3.3 25.2,9.2 25.4,9.3 0.2,0.1 0.5,0 0.6,-0.3 0.1,-0.2 0,-0.5 -0.3,-0.6 -0.5,-0.2 -5.1,-1.9 -10.7,-3.9 -1.1,-0.4 -2.3,-0.8 -3.5,-1.3 l -1,-0.4 c -4.1,-1.5 -8.3,-3 -11.4,-4.1 0.1,0.1 0.2,0.2 0.3,0.4 0.3,0.3 0.5,0.6 0.6,0.9 z"
   id="path110" />
	<path
   class="st8"
   d="m 506.5,100.8 1.4,0.5 c 2.1,0.7 3.7,1.2 4.5,1.5 0.2,-0.1 0.3,-0.3 0.2,-0.6 0,-0.1 -0.1,-0.2 -0.3,-0.3 -0.2,-0.1 -15.9,-5.6 -25,-8.9 -0.4,0.2 -0.7,0.4 -1.1,0.5 5.4,2 13.6,4.9 19.3,6.9 z"
   id="path111" />
</g>
</svg>
