<svg xmlns="http://www.w3.org/2000/svg" fill="currentColor" viewBox="0 0 300 180"><g fill="#fff"><path d="M237.033 130.611c-12.539 0-22.362-9.816-22.362-22.341v-7.312l7.333-.014c4.036 0 7.32 3.269 7.334 7.291v.042c0 2.057.794 3.986 2.255 5.433a7.74 7.74 0 0 0 5.334 2.248h.106a7.63 7.63 0 0 0 5.44-2.248 7.62 7.62 0 0 0 2.248-5.248v-.178a7.63 7.63 0 0 0-2.248-5.432 7.66 7.66 0 0 0-5.44-2.249c-12.539 0-22.362-9.815-22.362-22.333s9.83-22.34 22.376-22.34c6.142 0 11.823 2.34 16 6.595 4.078 4.149 6.334 9.68 6.369 15.589v7.46l-7.34.015c-4.029 0-7.312-3.262-7.334-7.277v-.05a7.6 7.6 0 0 0-2.248-5.432 7.76 7.76 0 0 0-5.262-2.248h-.178a7.64 7.64 0 0 0-5.454 2.248 7.6 7.6 0 0 0-2.255 5.426c0 2.05.801 3.993 2.255 5.44a7.8 7.8 0 0 0 2.44 1.645 7.7 7.7 0 0 0 2.993.603c12.49 0 22.277 9.73 22.362 22.17v.107h-1.433c-.588 0-1.787.014-5.659.028h-.178v.177c0 8.199-6.603 14.866-14.716 14.866h-.177v1.276c-.007.539-.015 1.156.007 6.043z"/><path d="M237.047 56.1c6.092 0 11.731 2.326 15.873 6.546 3.993 4.07 6.234 9.475 6.319 15.255v7.49l-7.156.014c-3.922 0-7.114-3.163-7.156-7.064v-.092c0-2.1-.823-4.078-2.305-5.56a7.93 7.93 0 0 0-5.206-2.292v-.014h-.355a7.83 7.83 0 0 0-5.581 2.305 7.78 7.78 0 0 0-2.305 5.56c0 2.107.822 4.079 2.305 5.56a8 8 0 0 0 2.496 1.689c.972.411 2 .617 3.064.617 12.326 0 22 9.553 22.185 21.802v.12h-1.277c-.596 0-1.808.014-5.638.029h-.355v.354c0 8.1-6.525 14.688-14.546 14.688h-.355v1.454c-.007.539-.014 1.142 0 5.873h-.021c-12.44 0-22.185-9.738-22.185-22.164v-7.135l7.157-.014c3.922 0 7.113 3.163 7.156 7.064v.092c0 2.1.822 4.078 2.305 5.561a7.94 7.94 0 0 0 5.354 2.298l.206.007a7.8 7.8 0 0 0 5.567-2.305 7.77 7.77 0 0 0 2.298-5.199h.014v-.355a7.82 7.82 0 0 0-2.305-5.56 7.82 7.82 0 0 0-5.56-2.298c-12.44 0-22.185-9.737-22.185-22.156s9.752-22.163 22.199-22.163m0-.355c-12.298 0-22.553 9.596-22.553 22.518s9.603 22.504 22.539 22.511a7.5 7.5 0 0 1 5.312 2.198 7.47 7.47 0 0 1 2.206 5.305 7.5 7.5 0 0 1-2.199 5.305 7.49 7.49 0 0 1-5.312 2.199 7.53 7.53 0 0 1-5.312-2.206 7.46 7.46 0 0 1-2.206-5.305c0-4.106-3.361-7.51-7.51-7.51l-7.511.021v7.489c0 12.922 10.241 22.518 22.539 22.518.128 0 .248-.007.376-.007-.035-7.312 0-5.319 0-7.312 8.014 0 14.901-6.638 14.901-15.043 7.319-.028 5.078-.028 7.27-.028v-.121c0-12.276-9.61-22.503-22.54-22.51a7.45 7.45 0 0 1-5.305-2.199 7.47 7.47 0 0 1-2.205-5.305c0-2.078.844-3.958 2.198-5.312a7.52 7.52 0 0 1 5.326-2.199c2.05 0 3.951.844 5.313 2.199a7.47 7.47 0 0 1 2.205 5.305c0 4.106 3.362 7.51 7.511 7.51l7.511-.02v-7.49c0-6.142-2.405-11.766-6.426-15.859-4.021-4.092-9.66-6.652-16.128-6.652m-202.513 74.66V70.795h7.511V55.738h7.163v74.674z"/><path d="M49.038 55.915v74.32h-14.32V70.972h7.511V55.915h6.802m-7.156-.355v15.057h-7.51v59.973h15.028V55.56zm165.058 22.504v52.526h-15.028V78.064a7.5 7.5 0 0 0-2.199-5.305 7.49 7.49 0 0 0-5.312-2.198h-7.511v60.029h-15.028V55.553h7.511c2.078 0 3.95.837 5.312 2.199 1.34 1.34 2.177 3.262 2.198 5.312 0-2.07.844-3.95 2.199-5.305a7.52 7.52 0 0 1 5.312-2.199c12.298-.007 22.539 9.59 22.539 22.511M88.819 102.774a7.46 7.46 0 0 0-2.199 5.305 7.5 7.5 0 0 1-2.199 5.305 7.48 7.48 0 0 1-5.312 2.198 7.47 7.47 0 0 1-5.312-2.198 7.44 7.44 0 0 1-2.198-5.298V78.064c0-2.07.843-3.943 2.198-5.305a7.48 7.48 0 0 1 5.312-2.198c2.071 0 3.95.836 5.312 2.198a7.46 7.46 0 0 1 2.199 5.305c0 2.071.844 3.944 2.199 5.305a7.52 7.52 0 0 0 5.305 2.199h7.51V78.07h.015c0-12.922-10.242-22.518-22.54-22.518S56.57 65.148 56.57 78.07v30.001c0 12.922 10.248 22.518 22.54 22.518 12.29 0 22.539-9.596 22.539-22.511v-7.504h-7.511a7.48 7.48 0 0 0-5.312 2.199m42.376 20.526h.013zm.013 0h-.013zm16.569-60.412s.035.035.049.056c-.014-.02-.035-.035-.049-.056m.035.035.021.021zm-24.128 45.37v-.008zM34.187 48.177H26.98v14.76h7.206z"/><path d="M34.01 48.355v14.404h-6.852V48.355zm.354-.355h-7.56v15.114h7.56zm97.37 82.625c-12.489 0-22.284-9.738-22.362-22.192V78.277c0-6.128 2.348-11.802 6.61-15.979 4.192-4.106 9.787-6.362 15.759-6.362h.312v-.064c12.178.093 22.05 10.093 22.05 22.37v.177h.014v29.837c0 12.546-9.83 22.369-22.376 22.369zm0-60.036a7.64 7.64 0 0 0-5.44 2.255 7.6 7.6 0 0 0-2.248 5.426v30.014c0 2.05.801 3.979 2.255 5.433a7.64 7.64 0 0 0 5.433 2.255 7.64 7.64 0 0 0 5.44-2.255 7.75 7.75 0 0 0 2.248-5.284l.014-30.34h-.014a7.6 7.6 0 0 0-2.248-5.249 7.64 7.64 0 0 0-5.44-2.255"/><path d="M132.23 56.057a21.9 21.9 0 0 1 15.164 6.39c4.213 4.177 6.525 9.787 6.525 15.802l.014.354v29.66c0 12.447-9.752 22.192-22.199 22.192-12.326 0-22-9.553-22.185-21.809v-30.37c0-6.084 2.327-11.708 6.554-15.85 4.156-4.071 9.709-6.313 15.631-6.313h.142l.354-.028zm-8.361 52.234c0 2.1.822 4.071 2.305 5.554a7.8 7.8 0 0 0 5.56 2.305 7.82 7.82 0 0 0 5.56-2.305c1.383-1.376 2.206-3.27 2.298-5.234h.014l.008-30.696h-.022a7.77 7.77 0 0 0-2.298-5.198 7.83 7.83 0 0 0-5.567-2.305 7.8 7.8 0 0 0-5.568 2.305 7.78 7.78 0 0 0-2.305 5.56v30.014m8.008-52.589v.064h-.142c-6.149 0-11.78 2.397-15.88 6.411-4.099 4.015-6.659 9.646-6.659 16.107v30.007c0 12.923 10.241 22.518 22.539 22.518s22.553-9.631 22.553-22.546V78.241h-.014c0-12.744-10.22-22.546-22.404-22.546zm-7.653 52.589V78.277a7.504 7.504 0 0 1 7.511-7.51c2.071 0 3.957.836 5.312 2.198a7.46 7.46 0 0 1 2.199 5.305h.007v29.986h-.015a7.56 7.56 0 0 1-2.198 5.333 7.515 7.515 0 0 1-10.624 0 7.49 7.49 0 0 1-2.199-5.305v.007zm7.511 15.008h.014zm120.696 7.44c-.028-5.036-.014-5.653-.007-6.192v-.922c8.17-.099 14.802-6.787 14.894-15.043 3.688-.014 4.879-.021 5.468-.028h1.688c-.092 12.191-9.929 22.092-22.05 22.192z"/><path d="M274.289 108.724c-.092 5.88-2.397 11.355-6.525 15.447a21.92 21.92 0 0 1-15.163 6.39c-.022-4.865-.015-5.475-.008-6.014v-.752c8.128-.191 14.71-6.83 14.894-15.035 3.553-.015 4.71-.022 5.291-.022h1.504m.354-.354c-2.588 0 .064 0-7.503.028 0 8.404-6.88 15.043-14.901 15.043 0 2.007-.036-.036 0 7.475 12.184 0 22.404-9.802 22.404-22.546m-20.723-48.781v-3.695h-1.27v-.255h2.851v.255h-1.276v3.695z"/><path d="M255.402 55.738v.078h-1.277v3.695h-.127v-3.695h-1.27v-.078zm.177-.178h-3.028v.433h1.269v3.695h.483v-3.695h1.276zm3.624 4.043v-3.128l-1.283 1.944h-.071l-1.284-1.944v3.128h-.298V55.61h.064l1.553 2.376 1.554-2.376h.063v3.993z"/><path d="M259.416 55.809v3.709h-.12v-3.333l-1.405 2.134-1.404-2.134v3.333h-.12v-3.702l1.375 2.106.149.227.149-.227 1.383-2.113m.178-.291h-.199l-1.511 2.305-1.503-2.305h-.199v4.17h.475v-2.922l1.142 1.738h.171l1.141-1.738v2.922h.476v-4.17z"/></g></svg>